<svg width="121" height="40" viewBox="0 0 121 40" fill="none" xmlns="http://www.w3.org/2000/svg">
<path d="M120.529 29.4273C120.529 35.2423 115.771 40 109.956 40H10.5727C4.75771 40 0 35.2423 0 29.4273V10.5727C0 4.75771 4.75771 0 10.5727 0H109.956C115.771 0 120.529 4.75771 120.529 10.5727V29.4273Z" fill="#404040"/>
<path d="M35.934 11.07H34.11L33.774 12H33.198L34.71 7.842H35.34L36.846 12H36.27L35.934 11.07ZM35.778 10.626L35.022 8.514L34.266 10.626H35.778ZM38.729 11.496L39.749 8.712H40.331L39.041 12H38.405L37.115 8.712H37.703L38.729 11.496ZM40.6643 10.344C40.6643 10.008 40.7323 9.714 40.8683 9.462C41.0043 9.206 41.1903 9.008 41.4263 8.868C41.6663 8.728 41.9323 8.658 42.2243 8.658C42.5123 8.658 42.7623 8.72 42.9743 8.844C43.1863 8.968 43.3443 9.124 43.4483 9.312V8.712H44.0003V12H43.4483V11.388C43.3403 11.58 43.1783 11.74 42.9623 11.868C42.7503 11.992 42.5023 12.054 42.2183 12.054C41.9263 12.054 41.6623 11.982 41.4263 11.838C41.1903 11.694 41.0043 11.492 40.8683 11.232C40.7323 10.972 40.6643 10.676 40.6643 10.344ZM43.4483 10.35C43.4483 10.102 43.3983 9.886 43.2983 9.702C43.1983 9.518 43.0623 9.378 42.8903 9.282C42.7223 9.182 42.5363 9.132 42.3323 9.132C42.1283 9.132 41.9423 9.18 41.7743 9.276C41.6063 9.372 41.4723 9.512 41.3723 9.696C41.2723 9.88 41.2223 10.096 41.2223 10.344C41.2223 10.596 41.2723 10.816 41.3723 11.004C41.4723 11.188 41.6063 11.33 41.7743 11.43C41.9423 11.526 42.1283 11.574 42.3323 11.574C42.5363 11.574 42.7223 11.526 42.8903 11.43C43.0623 11.33 43.1983 11.188 43.2983 11.004C43.3983 10.816 43.4483 10.598 43.4483 10.35ZM45.2049 8.178C45.1009 8.178 45.0129 8.142 44.9409 8.07C44.8689 7.998 44.8329 7.91 44.8329 7.806C44.8329 7.702 44.8689 7.614 44.9409 7.542C45.0129 7.47 45.1009 7.434 45.2049 7.434C45.3049 7.434 45.3889 7.47 45.4569 7.542C45.5289 7.614 45.5649 7.702 45.5649 7.806C45.5649 7.91 45.5289 7.998 45.4569 8.07C45.3889 8.142 45.3049 8.178 45.2049 8.178ZM45.4689 8.712V12H44.9229V8.712H45.4689ZM46.9455 7.56V12H46.3995V7.56H46.9455ZM47.6721 10.344C47.6721 10.008 47.7401 9.714 47.8761 9.462C48.0121 9.206 48.1981 9.008 48.4341 8.868C48.6741 8.728 48.9401 8.658 49.2321 8.658C49.5201 8.658 49.7701 8.72 49.9821 8.844C50.1941 8.968 50.3521 9.124 50.4561 9.312V8.712H51.0081V12H50.4561V11.388C50.3481 11.58 50.1861 11.74 49.9701 11.868C49.7581 11.992 49.5101 12.054 49.2261 12.054C48.9341 12.054 48.6701 11.982 48.4341 11.838C48.1981 11.694 48.0121 11.492 47.8761 11.232C47.7401 10.972 47.6721 10.676 47.6721 10.344ZM50.4561 10.35C50.4561 10.102 50.4061 9.886 50.3061 9.702C50.2061 9.518 50.0701 9.378 49.8981 9.282C49.7301 9.182 49.5441 9.132 49.3401 9.132C49.1361 9.132 48.9501 9.18 48.7821 9.276C48.6141 9.372 48.4801 9.512 48.3801 9.696C48.2801 9.88 48.2301 10.096 48.2301 10.344C48.2301 10.596 48.2801 10.816 48.3801 11.004C48.4801 11.188 48.6141 11.33 48.7821 11.43C48.9501 11.526 49.1361 11.574 49.3401 11.574C49.5441 11.574 49.7301 11.526 49.8981 11.43C50.0701 11.33 50.2061 11.188 50.3061 11.004C50.4061 10.816 50.4561 10.598 50.4561 10.35ZM52.4768 9.324C52.5888 9.128 52.7528 8.968 52.9688 8.844C53.1848 8.72 53.4308 8.658 53.7068 8.658C54.0028 8.658 54.2688 8.728 54.5048 8.868C54.7408 9.008 54.9268 9.206 55.0628 9.462C55.1988 9.714 55.2668 10.008 55.2668 10.344C55.2668 10.676 55.1988 10.972 55.0628 11.232C54.9268 11.492 54.7387 11.694 54.4987 11.838C54.2628 11.982 53.9988 12.054 53.7068 12.054C53.4228 12.054 53.1728 11.992 52.9568 11.868C52.7448 11.744 52.5848 11.586 52.4768 11.394V12H51.9308V7.56H52.4768V9.324ZM54.7088 10.344C54.7088 10.096 54.6588 9.88 54.5588 9.696C54.4588 9.512 54.3228 9.372 54.1508 9.276C53.9828 9.18 53.7968 9.132 53.5928 9.132C53.3928 9.132 53.2068 9.182 53.0348 9.282C52.8668 9.378 52.7308 9.52 52.6268 9.708C52.5268 9.892 52.4768 10.106 52.4768 10.35C52.4768 10.598 52.5268 10.816 52.6268 11.004C52.7308 11.188 52.8668 11.33 53.0348 11.43C53.2068 11.526 53.3928 11.574 53.5928 11.574C53.7968 11.574 53.9828 11.526 54.1508 11.43C54.3228 11.33 54.4588 11.188 54.5588 11.004C54.6588 10.816 54.7088 10.596 54.7088 10.344ZM56.5314 7.56V12H55.9854V7.56H56.5314ZM60.462 10.23C60.462 10.334 60.456 10.444 60.444 10.56H57.816C57.836 10.884 57.946 11.138 58.146 11.322C58.35 11.502 58.596 11.592 58.884 11.592C59.12 11.592 59.316 11.538 59.472 11.43C59.632 11.318 59.744 11.17 59.808 10.986H60.396C60.308 11.302 60.132 11.56 59.868 11.76C59.604 11.956 59.276 12.054 58.884 12.054C58.572 12.054 58.292 11.984 58.044 11.844C57.8 11.704 57.608 11.506 57.468 11.25C57.328 10.99 57.258 10.69 57.258 10.35C57.258 10.01 57.326 9.712 57.462 9.456C57.598 9.2 57.788 9.004 58.032 8.868C58.28 8.728 58.564 8.658 58.884 8.658C59.196 8.658 59.472 8.726 59.712 8.862C59.952 8.998 60.136 9.186 60.264 9.426C60.396 9.662 60.462 9.93 60.462 10.23ZM59.898 10.116C59.898 9.908 59.852 9.73 59.76 9.582C59.668 9.43 59.542 9.316 59.382 9.24C59.226 9.16 59.052 9.12 58.86 9.12C58.584 9.12 58.348 9.208 58.152 9.384C57.96 9.56 57.85 9.804 57.822 10.116H59.898ZM64.2163 12.054C63.9083 12.054 63.6283 11.984 63.3763 11.844C63.1283 11.704 62.9323 11.506 62.7883 11.25C62.6483 10.99 62.5783 10.69 62.5783 10.35C62.5783 10.014 62.6503 9.718 62.7943 9.462C62.9423 9.202 63.1423 9.004 63.3943 8.868C63.6463 8.728 63.9283 8.658 64.2403 8.658C64.5523 8.658 64.8343 8.728 65.0863 8.868C65.3383 9.004 65.5363 9.2 65.6803 9.456C65.8283 9.712 65.9023 10.01 65.9023 10.35C65.9023 10.69 65.8263 10.99 65.6743 11.25C65.5263 11.506 65.3243 11.704 65.0683 11.844C64.8123 11.984 64.5283 12.054 64.2163 12.054ZM64.2163 11.574C64.4123 11.574 64.5963 11.528 64.7683 11.436C64.9403 11.344 65.0783 11.206 65.1823 11.022C65.2903 10.838 65.3443 10.614 65.3443 10.35C65.3443 10.086 65.2923 9.862 65.1883 9.678C65.0843 9.494 64.9483 9.358 64.7803 9.27C64.6123 9.178 64.4303 9.132 64.2343 9.132C64.0343 9.132 63.8503 9.178 63.6823 9.27C63.5183 9.358 63.3863 9.494 63.2863 9.678C63.1863 9.862 63.1363 10.086 63.1363 10.35C63.1363 10.618 63.1843 10.844 63.2803 11.028C63.3803 11.212 63.5123 11.35 63.6763 11.442C63.8403 11.53 64.0203 11.574 64.2163 11.574ZM68.2222 8.652C68.6222 8.652 68.9462 8.774 69.1942 9.018C69.4422 9.258 69.5662 9.606 69.5662 10.062V12H69.0262V10.14C69.0262 9.812 68.9442 9.562 68.7802 9.39C68.6162 9.214 68.3922 9.126 68.1082 9.126C67.8202 9.126 67.5902 9.216 67.4182 9.396C67.2502 9.576 67.1662 9.838 67.1662 10.182V12H66.6202V8.712H67.1662V9.18C67.2742 9.012 67.4202 8.882 67.6042 8.79C67.7922 8.698 67.9982 8.652 68.2222 8.652ZM72.7237 9.162V11.1C72.7237 11.26 72.7577 11.374 72.8257 11.442C72.8937 11.506 73.0117 11.538 73.1797 11.538H73.5817V12H73.0897C72.7857 12 72.5577 11.93 72.4057 11.79C72.2537 11.65 72.1777 11.42 72.1777 11.1V9.162H71.7517V8.712H72.1777V7.884H72.7237V8.712H73.5817V9.162H72.7237ZM75.8753 8.652C76.1233 8.652 76.3473 8.706 76.5473 8.814C76.7473 8.918 76.9033 9.076 77.0153 9.288C77.1313 9.5 77.1893 9.758 77.1893 10.062V12H76.6493V10.14C76.6493 9.812 76.5673 9.562 76.4033 9.39C76.2393 9.214 76.0153 9.126 75.7313 9.126C75.4433 9.126 75.2133 9.216 75.0413 9.396C74.8733 9.576 74.7893 9.838 74.7893 10.182V12H74.2433V7.56H74.7893V9.18C74.8973 9.012 75.0453 8.882 75.2333 8.79C75.4253 8.698 75.6393 8.652 75.8753 8.652ZM81.0811 10.23C81.0811 10.334 81.0751 10.444 81.0631 10.56H78.4351C78.4551 10.884 78.5651 11.138 78.7651 11.322C78.9691 11.502 79.2151 11.592 79.5031 11.592C79.7391 11.592 79.9351 11.538 80.0911 11.43C80.2511 11.318 80.3631 11.17 80.4271 10.986H81.0151C80.9271 11.302 80.7511 11.56 80.4871 11.76C80.2231 11.956 79.8951 12.054 79.5031 12.054C79.1911 12.054 78.9111 11.984 78.6631 11.844C78.4191 11.704 78.2271 11.506 78.0871 11.25C77.9471 10.99 77.8771 10.69 77.8771 10.35C77.8771 10.01 77.9451 9.712 78.0811 9.456C78.2171 9.2 78.4071 9.004 78.6511 8.868C78.8991 8.728 79.1831 8.658 79.5031 8.658C79.8151 8.658 80.0911 8.726 80.3311 8.862C80.5711 8.998 80.7551 9.186 80.8831 9.426C81.0151 9.662 81.0811 9.93 81.0811 10.23ZM80.5171 10.116C80.5171 9.908 80.4711 9.73 80.3791 9.582C80.2871 9.43 80.1611 9.316 80.0011 9.24C79.8451 9.16 79.6711 9.12 79.4791 9.12C79.2031 9.12 78.9671 9.208 78.7711 9.384C78.5791 9.56 78.4691 9.804 78.4411 10.116H80.5171Z" fill="white"/>
<path d="M39.846 25.83H35.59L34.806 28H33.462L36.99 18.298H38.46L41.974 28H40.63L39.846 25.83ZM39.482 24.794L37.718 19.866L35.954 24.794H39.482ZM44.7856 21.742C45.0376 21.3033 45.4109 20.9393 45.9056 20.65C46.4096 20.3513 46.9929 20.202 47.6556 20.202C48.3369 20.202 48.9529 20.3653 49.5036 20.692C50.0636 21.0187 50.5023 21.4807 50.8196 22.078C51.1369 22.666 51.2956 23.352 51.2956 24.136C51.2956 24.9107 51.1369 25.6013 50.8196 26.208C50.5023 26.8147 50.0636 27.286 49.5036 27.622C48.9529 27.958 48.3369 28.126 47.6556 28.126C47.0023 28.126 46.4236 27.9813 45.9196 27.692C45.4249 27.3933 45.0469 27.0247 44.7856 26.586V31.64H43.5116V20.328H44.7856V21.742ZM49.9936 24.136C49.9936 23.5573 49.8769 23.0533 49.6436 22.624C49.4103 22.1947 49.0929 21.868 48.6916 21.644C48.2996 21.42 47.8656 21.308 47.3896 21.308C46.9229 21.308 46.4889 21.4247 46.0876 21.658C45.6956 21.882 45.3783 22.2133 45.1356 22.652C44.9023 23.0813 44.7856 23.5807 44.7856 24.15C44.7856 24.7287 44.9023 25.2373 45.1356 25.676C45.3783 26.1053 45.6956 26.4367 46.0876 26.67C46.4889 26.894 46.9229 27.006 47.3896 27.006C47.8656 27.006 48.2996 26.894 48.6916 26.67C49.0929 26.4367 49.4103 26.1053 49.6436 25.676C49.8769 25.2373 49.9936 24.724 49.9936 24.136ZM54.2465 21.742C54.4985 21.3033 54.8719 20.9393 55.3665 20.65C55.8705 20.3513 56.4539 20.202 57.1165 20.202C57.7979 20.202 58.4139 20.3653 58.9645 20.692C59.5245 21.0187 59.9632 21.4807 60.2805 22.078C60.5979 22.666 60.7565 23.352 60.7565 24.136C60.7565 24.9107 60.5979 25.6013 60.2805 26.208C59.9632 26.8147 59.5245 27.286 58.9645 27.622C58.4139 27.958 57.7979 28.126 57.1165 28.126C56.4632 28.126 55.8845 27.9813 55.3805 27.692C54.8859 27.3933 54.5079 27.0247 54.2465 26.586V31.64H52.9725V20.328H54.2465V21.742ZM59.4545 24.136C59.4545 23.5573 59.3379 23.0533 59.1045 22.624C58.8712 22.1947 58.5539 21.868 58.1525 21.644C57.7605 21.42 57.3265 21.308 56.8505 21.308C56.3839 21.308 55.9499 21.4247 55.5485 21.658C55.1565 21.882 54.8392 22.2133 54.5965 22.652C54.3632 23.0813 54.2465 23.5807 54.2465 24.15C54.2465 24.7287 54.3632 25.2373 54.5965 25.676C54.8392 26.1053 55.1565 26.4367 55.5485 26.67C55.9499 26.894 56.3839 27.006 56.8505 27.006C57.3265 27.006 57.7605 26.894 58.1525 26.67C58.5539 26.4367 58.8712 26.1053 59.1045 25.676C59.3379 25.2373 59.4545 24.724 59.4545 24.136ZM69.2599 28.098C68.6159 28.098 68.0372 27.986 67.5239 27.762C67.0199 27.5287 66.6232 27.2113 66.3339 26.81C66.0446 26.3993 65.8952 25.928 65.8859 25.396H67.2439C67.2906 25.8533 67.4772 26.2407 67.8039 26.558C68.1399 26.866 68.6252 27.02 69.2599 27.02C69.8666 27.02 70.3426 26.8707 70.6879 26.572C71.0426 26.264 71.2199 25.872 71.2199 25.396C71.2199 25.0227 71.1172 24.7193 70.9119 24.486C70.7066 24.2527 70.4499 24.0753 70.1419 23.954C69.8339 23.8327 69.4186 23.702 68.8959 23.562C68.2519 23.394 67.7339 23.226 67.3419 23.058C66.9592 22.89 66.6279 22.6287 66.3479 22.274C66.0772 21.91 65.9419 21.4247 65.9419 20.818C65.9419 20.286 66.0772 19.8147 66.3479 19.404C66.6186 18.9933 66.9966 18.676 67.4819 18.452C67.9766 18.228 68.5412 18.116 69.1759 18.116C70.0906 18.116 70.8372 18.3447 71.4159 18.802C72.0039 19.2593 72.3352 19.866 72.4099 20.622H71.0099C70.9632 20.2487 70.7672 19.922 70.4219 19.642C70.0766 19.3527 69.6192 19.208 69.0499 19.208C68.5179 19.208 68.0839 19.348 67.7479 19.628C67.4119 19.8987 67.2439 20.2813 67.2439 20.776C67.2439 21.1307 67.3419 21.42 67.5379 21.644C67.7432 21.868 67.9906 22.0407 68.2799 22.162C68.5786 22.274 68.9939 22.4047 69.5259 22.554C70.1699 22.7313 70.6879 22.9087 71.0799 23.086C71.4719 23.254 71.8079 23.52 72.0879 23.884C72.3679 24.2387 72.5079 24.724 72.5079 25.34C72.5079 25.816 72.3819 26.264 72.1299 26.684C71.8779 27.104 71.5046 27.4447 71.0099 27.706C70.5152 27.9673 69.9319 28.098 69.2599 28.098ZM75.9367 21.378V25.9C75.9367 26.2733 76.016 26.5393 76.1747 26.698C76.3334 26.8473 76.6087 26.922 77.0007 26.922H77.9387V28H76.7907C76.0814 28 75.5494 27.8367 75.1947 27.51C74.84 27.1833 74.6627 26.6467 74.6627 25.9V21.378H73.6687V20.328H74.6627V18.396H75.9367V20.328H77.9387V21.378H75.9367ZM82.8283 28.126C82.1096 28.126 81.4563 27.9627 80.8683 27.636C80.2896 27.3093 79.8323 26.8473 79.4963 26.25C79.1696 25.6433 79.0063 24.9433 79.0063 24.15C79.0063 23.366 79.1743 22.6753 79.5103 22.078C79.8556 21.4713 80.3223 21.0093 80.9103 20.692C81.4983 20.3653 82.1563 20.202 82.8843 20.202C83.6123 20.202 84.2703 20.3653 84.8583 20.692C85.4463 21.0093 85.9083 21.4667 86.2443 22.064C86.5896 22.6613 86.7623 23.3567 86.7623 24.15C86.7623 24.9433 86.585 25.6433 86.2303 26.25C85.885 26.8473 85.4136 27.3093 84.8163 27.636C84.219 27.9627 83.5563 28.126 82.8283 28.126ZM82.8283 27.006C83.2856 27.006 83.715 26.8987 84.1163 26.684C84.5176 26.4693 84.8396 26.1473 85.0823 25.718C85.3343 25.2887 85.4603 24.766 85.4603 24.15C85.4603 23.534 85.339 23.0113 85.0963 22.582C84.8536 22.1527 84.5363 21.8353 84.1443 21.63C83.7523 21.4153 83.3276 21.308 82.8703 21.308C82.4036 21.308 81.9743 21.4153 81.5823 21.63C81.1996 21.8353 80.8916 22.1527 80.6583 22.582C80.425 23.0113 80.3083 23.534 80.3083 24.15C80.3083 24.7753 80.4203 25.3027 80.6443 25.732C80.8776 26.1613 81.1856 26.4833 81.5683 26.698C81.951 26.9033 82.371 27.006 82.8283 27.006ZM89.7114 21.574C89.9354 21.1353 90.2527 20.7947 90.6634 20.552C91.0834 20.3093 91.592 20.188 92.1894 20.188V21.504H91.8534C90.4254 21.504 89.7114 22.2787 89.7114 23.828V28H88.4374V20.328H89.7114V21.574ZM100.66 23.87C100.66 24.1127 100.646 24.3693 100.618 24.64H94.486C94.5327 25.396 94.7894 25.9887 95.256 26.418C95.732 26.838 96.306 27.048 96.978 27.048C97.5287 27.048 97.986 26.922 98.35 26.67C98.7234 26.4087 98.9847 26.0633 99.134 25.634H100.506C100.301 26.3713 99.89 26.9733 99.274 27.44C98.658 27.8973 97.8927 28.126 96.978 28.126C96.25 28.126 95.5967 27.9627 95.018 27.636C94.4487 27.3093 94.0007 26.8473 93.674 26.25C93.3474 25.6433 93.184 24.9433 93.184 24.15C93.184 23.3567 93.3427 22.6613 93.66 22.064C93.9774 21.4667 94.4207 21.0093 94.99 20.692C95.5687 20.3653 96.2314 20.202 96.978 20.202C97.706 20.202 98.35 20.3607 98.91 20.678C99.47 20.9953 99.8994 21.434 100.198 21.994C100.506 22.5447 100.66 23.17 100.66 23.87ZM99.344 23.604C99.344 23.1187 99.2367 22.7033 99.022 22.358C98.8074 22.0033 98.5134 21.7373 98.14 21.56C97.776 21.3733 97.37 21.28 96.922 21.28C96.278 21.28 95.7274 21.4853 95.27 21.896C94.822 22.3067 94.5654 22.876 94.5 23.604H99.344Z" fill="white"/>
<path d="M21.1454 8.28906H8.63437C7.5771 8.28906 6.87225 9.17012 6.87225 10.0512V31.1965C6.87225 32.2538 7.75331 32.9587 8.63437 32.9587H21.1454C22.2027 32.9587 22.9075 32.0776 22.9075 31.1965V10.0512C22.9075 9.17012 22.0264 8.28906 21.1454 8.28906Z" fill="white"/>
<path d="M22.0265 11.2891H7.57715V28.734H22.0265V11.2891Z" fill="#404040"/>
<path d="M17.7973 9.35938H11.8062C11.6299 9.35938 11.4537 9.53561 11.4537 9.71182C11.4537 9.88803 11.6299 10.0643 11.8062 10.0643H17.7973C17.9735 10.0643 18.1497 9.88803 18.1497 9.71182C18.1497 9.53561 17.9735 9.35938 17.7973 9.35938Z" fill="#191919"/>
<path d="M13.3921 30.8472C13.3921 30.1423 14.0969 29.4375 14.8018 29.4375C15.5066 29.4375 16.2115 30.1423 16.2115 30.8472C16.2115 31.552 15.5066 32.2568 14.8018 32.2568C14.0969 32.2568 13.3921 31.552 13.3921 30.8472Z" fill="#191919"/>
</svg>
