<svg width="40" height="40" viewBox="0 0 40 40" fill="none" xmlns="http://www.w3.org/2000/svg">
<path d="M33.7499 13.875V11.25C33.7499 9.5924 33.0914 8.00269 31.9193 6.83058C30.7472 5.65848 29.1575 5 27.4999 5H12.4999C10.8423 5 9.2526 5.65848 8.0805 6.83058C6.9084 8.00269 6.24992 9.5924 6.24992 11.25V13.875C4.83706 14.1619 3.56682 14.9284 2.65445 16.0447C1.74207 17.1609 1.24365 18.5583 1.24365 20C1.24365 21.4417 1.74207 22.8391 2.65445 23.9553C3.56682 25.0716 4.83706 25.8381 6.24992 26.125V31.25C6.24992 31.913 6.51331 32.5489 6.98215 33.0178C7.45099 33.4866 8.08688 33.75 8.74992 33.75H31.2499C31.913 33.75 32.5488 33.4866 33.0177 33.0178C33.4865 32.5489 33.7499 31.913 33.7499 31.25V26.125C35.1628 25.8381 36.433 25.0716 37.3454 23.9553C38.2578 22.8391 38.7562 21.4417 38.7562 20C38.7562 18.5583 38.2578 17.1609 37.3454 16.0447C36.433 14.9284 35.1628 14.1619 33.7499 13.875ZM12.4999 7.5H27.4999C28.4945 7.5 29.4483 7.89509 30.1516 8.59835C30.8548 9.30161 31.2499 10.2554 31.2499 11.25V13.875C29.8392 14.1651 28.5715 14.9327 27.6607 16.0484C26.75 17.1641 26.2517 18.5597 26.2499 20H13.7499C13.7482 18.5597 13.2499 17.1641 12.3391 16.0484C11.4283 14.9327 10.1607 14.1651 8.74992 13.875V11.25C8.74992 10.2554 9.14501 9.30161 9.84827 8.59835C10.5515 7.89509 11.5054 7.5 12.4999 7.5ZM32.5609 23.75H32.4999C32.1684 23.75 31.8505 23.8817 31.616 24.1161C31.3816 24.3505 31.2499 24.6685 31.2499 25V31.25H8.74992V25C8.74992 24.6685 8.61822 24.3505 8.3838 24.1161C8.14938 23.8817 7.83144 23.75 7.49992 23.75H7.43898C6.70001 23.738 5.98107 23.5079 5.37246 23.0886C4.76384 22.6693 4.29269 22.0795 4.01818 21.3933C3.74368 20.7071 3.67805 19.9551 3.82956 19.2318C3.98106 18.5084 4.34293 17.8459 4.86972 17.3276C5.39652 16.8092 6.06474 16.458 6.79045 16.3182C7.51617 16.1784 8.26702 16.2561 8.9487 16.5417C9.63038 16.8272 10.2125 17.3078 10.6219 17.9231C11.0313 18.5384 11.2498 19.2609 11.2499 20V26.25C11.2499 26.5815 11.3816 26.8995 11.616 27.1339C11.8505 27.3683 12.1684 27.5 12.4999 27.5C12.8314 27.5 13.1494 27.3683 13.3838 27.1339C13.6182 26.8995 13.7499 26.5815 13.7499 26.25V22.5H26.2499V26.25C26.2499 26.5815 26.3816 26.8995 26.616 27.1339C26.8505 27.3683 27.1684 27.5 27.4999 27.5C27.8314 27.5 28.1494 27.3683 28.3838 27.1339C28.6182 26.8995 28.7499 26.5815 28.7499 26.25V20C28.75 19.2609 28.9685 18.5384 29.3779 17.9231C29.7873 17.3078 30.3695 16.8272 31.0511 16.5417C31.7328 16.2561 32.4837 16.1784 33.2094 16.3182C33.9351 16.458 34.6033 16.8092 35.1301 17.3276C35.6569 17.8459 36.0188 18.5084 36.1703 19.2318C36.3218 19.9551 36.2562 20.7071 35.9817 21.3933C35.7071 22.0795 35.236 22.6693 34.6274 23.0886C34.0188 23.5079 33.2998 23.738 32.5609 23.75Z" fill="white"/>
</svg>
