<svg width="40" height="40" viewBox="0 0 40 40" fill="none" xmlns="http://www.w3.org/2000/svg">
<path d="M3.75 28.75H36.25C36.5815 28.75 36.8995 28.6183 37.1339 28.3839C37.3683 28.1495 37.5 27.8315 37.5 27.5C37.5 27.1685 37.3683 26.8505 37.1339 26.6161C36.8995 26.3817 36.5815 26.25 36.25 26.25H35V23.75C34.9954 19.9896 33.5804 16.3676 31.0344 13.6001C28.4885 10.8326 24.997 9.1208 21.25 8.80312V6.25H23.75C24.0815 6.25 24.3995 6.1183 24.6339 5.88388C24.8683 5.64946 25 5.33152 25 5C25 4.66848 24.8683 4.35054 24.6339 4.11612C24.3995 3.8817 24.0815 3.75 23.75 3.75H16.25C15.9185 3.75 15.6005 3.8817 15.3661 4.11612C15.1317 4.35054 15 4.66848 15 5C15 5.33152 15.1317 5.64946 15.3661 5.88388C15.6005 6.1183 15.9185 6.25 16.25 6.25H18.75V8.80312C15.003 9.1208 11.5115 10.8326 8.96556 13.6001C6.41964 16.3676 5.00455 19.9896 5 23.75V26.25H3.75C3.41848 26.25 3.10054 26.3817 2.86612 26.6161C2.6317 26.8505 2.5 27.1685 2.5 27.5C2.5 27.8315 2.6317 28.1495 2.86612 28.3839C3.10054 28.6183 3.41848 28.75 3.75 28.75ZM7.5 23.75C7.5 20.4348 8.81696 17.2554 11.1612 14.9112C13.5054 12.567 16.6848 11.25 20 11.25C23.3152 11.25 26.4946 12.567 28.8388 14.9112C31.183 17.2554 32.5 20.4348 32.5 23.75V26.25H7.5V23.75ZM37.5 32.5C37.5 32.8315 37.3683 33.1495 37.1339 33.3839C36.8995 33.6183 36.5815 33.75 36.25 33.75H3.75C3.41848 33.75 3.10054 33.6183 2.86612 33.3839C2.6317 33.1495 2.5 32.8315 2.5 32.5C2.5 32.1685 2.6317 31.8505 2.86612 31.6161C3.10054 31.3817 3.41848 31.25 3.75 31.25H36.25C36.5815 31.25 36.8995 31.3817 37.1339 31.6161C37.3683 31.8505 37.5 32.1685 37.5 32.5Z" fill="white"/>
</svg>
