<svg width="121" height="40" viewBox="0 0 121 40" fill="none" xmlns="http://www.w3.org/2000/svg">
<path d="M120.529 29.4273C120.529 35.2423 115.771 40 109.956 40H10.5727C4.75771 40 0 35.2423 0 29.4273V10.5727C0 4.75771 4.75771 0 10.5727 0H109.956C115.771 0 120.529 4.75771 120.529 10.5727V29.4273Z" fill="#404040"/>
<path d="M33.258 10.344C33.258 10.008 33.326 9.714 33.462 9.462C33.598 9.206 33.784 9.008 34.02 8.868C34.26 8.728 34.526 8.658 34.818 8.658C35.106 8.658 35.356 8.72 35.568 8.844C35.78 8.968 35.938 9.124 36.042 9.312V8.712H36.594V12H36.042V11.388C35.934 11.58 35.772 11.74 35.556 11.868C35.344 11.992 35.096 12.054 34.812 12.054C34.52 12.054 34.256 11.982 34.02 11.838C33.784 11.694 33.598 11.492 33.462 11.232C33.326 10.972 33.258 10.676 33.258 10.344ZM36.042 10.35C36.042 10.102 35.992 9.886 35.892 9.702C35.792 9.518 35.656 9.378 35.484 9.282C35.316 9.182 35.13 9.132 34.926 9.132C34.722 9.132 34.536 9.18 34.368 9.276C34.2 9.372 34.066 9.512 33.966 9.696C33.866 9.88 33.816 10.096 33.816 10.344C33.816 10.596 33.866 10.816 33.966 11.004C34.066 11.188 34.2 11.33 34.368 11.43C34.536 11.526 34.722 11.574 34.926 11.574C35.13 11.574 35.316 11.526 35.484 11.43C35.656 11.33 35.792 11.188 35.892 11.004C35.992 10.816 36.042 10.598 36.042 10.35ZM39.1187 8.652C39.5187 8.652 39.8427 8.774 40.0907 9.018C40.3387 9.258 40.4627 9.606 40.4627 10.062V12H39.9227V10.14C39.9227 9.812 39.8407 9.562 39.6767 9.39C39.5127 9.214 39.2887 9.126 39.0047 9.126C38.7167 9.126 38.4867 9.216 38.3147 9.396C38.1467 9.576 38.0627 9.838 38.0627 10.182V12H37.5167V8.712H38.0627V9.18C38.1707 9.012 38.3167 8.882 38.5007 8.79C38.6887 8.698 38.8947 8.652 39.1187 8.652ZM41.1506 10.344C41.1506 10.008 41.2186 9.714 41.3546 9.462C41.4906 9.206 41.6766 9.008 41.9126 8.868C42.1526 8.728 42.4206 8.658 42.7166 8.658C42.9726 8.658 43.2106 8.718 43.4306 8.838C43.6506 8.954 43.8186 9.108 43.9346 9.3V7.56H44.4866V12H43.9346V11.382C43.8266 11.578 43.6666 11.74 43.4546 11.868C43.2426 11.992 42.9946 12.054 42.7106 12.054C42.4186 12.054 42.1526 11.982 41.9126 11.838C41.6766 11.694 41.4906 11.492 41.3546 11.232C41.2186 10.972 41.1506 10.676 41.1506 10.344ZM43.9346 10.35C43.9346 10.102 43.8846 9.886 43.7846 9.702C43.6846 9.518 43.5486 9.378 43.3766 9.282C43.2086 9.182 43.0226 9.132 42.8186 9.132C42.6146 9.132 42.4286 9.18 42.2606 9.276C42.0926 9.372 41.9586 9.512 41.8586 9.696C41.7586 9.88 41.7086 10.096 41.7086 10.344C41.7086 10.596 41.7586 10.816 41.8586 11.004C41.9586 11.188 42.0926 11.33 42.2606 11.43C42.4286 11.526 42.6146 11.574 42.8186 11.574C43.0226 11.574 43.2086 11.526 43.3766 11.43C43.5486 11.33 43.6846 11.188 43.7846 11.004C43.8846 10.816 43.9346 10.598 43.9346 10.35ZM45.9553 9.246C46.0513 9.058 46.1873 8.912 46.3633 8.808C46.5433 8.704 46.7613 8.652 47.0173 8.652V9.216H46.8733C46.2613 9.216 45.9553 9.548 45.9553 10.212V12H45.4093V8.712H45.9553V9.246ZM49.0815 12.054C48.7735 12.054 48.4935 11.984 48.2415 11.844C47.9935 11.704 47.7975 11.506 47.6535 11.25C47.5135 10.99 47.4435 10.69 47.4435 10.35C47.4435 10.014 47.5155 9.718 47.6595 9.462C47.8075 9.202 48.0075 9.004 48.2595 8.868C48.5115 8.728 48.7935 8.658 49.1055 8.658C49.4175 8.658 49.6995 8.728 49.9515 8.868C50.2035 9.004 50.4015 9.2 50.5455 9.456C50.6935 9.712 50.7675 10.01 50.7675 10.35C50.7675 10.69 50.6915 10.99 50.5395 11.25C50.3915 11.506 50.1895 11.704 49.9335 11.844C49.6775 11.984 49.3935 12.054 49.0815 12.054ZM49.0815 11.574C49.2775 11.574 49.4615 11.528 49.6335 11.436C49.8055 11.344 49.9435 11.206 50.0475 11.022C50.1555 10.838 50.2095 10.614 50.2095 10.35C50.2095 10.086 50.1575 9.862 50.0535 9.678C49.9495 9.494 49.8135 9.358 49.6455 9.27C49.4775 9.178 49.2955 9.132 49.0995 9.132C48.8995 9.132 48.7155 9.178 48.5475 9.27C48.3835 9.358 48.2515 9.494 48.1515 9.678C48.0515 9.862 48.0015 10.086 48.0015 10.35C48.0015 10.618 48.0495 10.844 48.1455 11.028C48.2455 11.212 48.3775 11.35 48.5415 11.442C48.7055 11.53 48.8855 11.574 49.0815 11.574ZM51.7674 8.178C51.6634 8.178 51.5754 8.142 51.5034 8.07C51.4314 7.998 51.3954 7.91 51.3954 7.806C51.3954 7.702 51.4314 7.614 51.5034 7.542C51.5754 7.47 51.6634 7.434 51.7674 7.434C51.8674 7.434 51.9514 7.47 52.0194 7.542C52.0914 7.614 52.1274 7.702 52.1274 7.806C52.1274 7.91 52.0914 7.998 52.0194 8.07C51.9514 8.142 51.8674 8.178 51.7674 8.178ZM52.0314 8.712V12H51.4854V8.712H52.0314ZM52.758 10.344C52.758 10.008 52.826 9.714 52.962 9.462C53.098 9.206 53.284 9.008 53.52 8.868C53.76 8.728 54.028 8.658 54.324 8.658C54.58 8.658 54.818 8.718 55.038 8.838C55.258 8.954 55.426 9.108 55.542 9.3V7.56H56.094V12H55.542V11.382C55.434 11.578 55.274 11.74 55.062 11.868C54.85 11.992 54.602 12.054 54.318 12.054C54.026 12.054 53.76 11.982 53.52 11.838C53.284 11.694 53.098 11.492 52.962 11.232C52.826 10.972 52.758 10.676 52.758 10.344ZM55.542 10.35C55.542 10.102 55.492 9.886 55.392 9.702C55.292 9.518 55.156 9.378 54.984 9.282C54.816 9.182 54.63 9.132 54.426 9.132C54.222 9.132 54.036 9.18 53.868 9.276C53.7 9.372 53.566 9.512 53.466 9.696C53.366 9.88 53.316 10.096 53.316 10.344C53.316 10.596 53.366 10.816 53.466 11.004C53.566 11.188 53.7 11.33 53.868 11.43C54.036 11.526 54.222 11.574 54.426 11.574C54.63 11.574 54.816 11.526 54.984 11.43C55.156 11.33 55.292 11.188 55.392 11.004C55.492 10.816 55.542 10.598 55.542 10.35ZM58.4123 10.344C58.4123 10.008 58.4803 9.714 58.6163 9.462C58.7523 9.206 58.9383 9.008 59.1743 8.868C59.4143 8.728 59.6803 8.658 59.9723 8.658C60.2603 8.658 60.5103 8.72 60.7223 8.844C60.9343 8.968 61.0923 9.124 61.1963 9.312V8.712H61.7483V12H61.1963V11.388C61.0883 11.58 60.9263 11.74 60.7103 11.868C60.4983 11.992 60.2503 12.054 59.9663 12.054C59.6743 12.054 59.4103 11.982 59.1743 11.838C58.9383 11.694 58.7523 11.492 58.6163 11.232C58.4803 10.972 58.4123 10.676 58.4123 10.344ZM61.1963 10.35C61.1963 10.102 61.1463 9.886 61.0463 9.702C60.9463 9.518 60.8103 9.378 60.6383 9.282C60.4703 9.182 60.2843 9.132 60.0803 9.132C59.8763 9.132 59.6903 9.18 59.5223 9.276C59.3543 9.372 59.2203 9.512 59.1203 9.696C59.0203 9.88 58.9703 10.096 58.9703 10.344C58.9703 10.596 59.0203 10.816 59.1203 11.004C59.2203 11.188 59.3543 11.33 59.5223 11.43C59.6903 11.526 59.8763 11.574 60.0803 11.574C60.2843 11.574 60.4703 11.526 60.6383 11.43C60.8103 11.33 60.9463 11.188 61.0463 11.004C61.1463 10.816 61.1963 10.598 61.1963 10.35ZM63.217 9.318C63.325 9.13 63.485 8.974 63.697 8.85C63.913 8.722 64.163 8.658 64.447 8.658C64.739 8.658 65.003 8.728 65.239 8.868C65.479 9.008 65.667 9.206 65.803 9.462C65.939 9.714 66.007 10.008 66.007 10.344C66.007 10.676 65.939 10.972 65.803 11.232C65.667 11.492 65.479 11.694 65.239 11.838C65.003 11.982 64.739 12.054 64.447 12.054C64.167 12.054 63.919 11.992 63.703 11.868C63.491 11.74 63.329 11.582 63.217 11.394V13.56H62.671V8.712H63.217V9.318ZM65.449 10.344C65.449 10.096 65.399 9.88 65.299 9.696C65.199 9.512 65.063 9.372 64.891 9.276C64.723 9.18 64.537 9.132 64.333 9.132C64.133 9.132 63.947 9.182 63.775 9.282C63.607 9.378 63.471 9.52 63.367 9.708C63.267 9.892 63.217 10.106 63.217 10.35C63.217 10.598 63.267 10.816 63.367 11.004C63.471 11.188 63.607 11.33 63.775 11.43C63.947 11.526 64.133 11.574 64.333 11.574C64.537 11.574 64.723 11.526 64.891 11.43C65.063 11.33 65.199 11.188 65.299 11.004C65.399 10.816 65.449 10.596 65.449 10.344ZM67.2717 9.318C67.3797 9.13 67.5397 8.974 67.7517 8.85C67.9677 8.722 68.2177 8.658 68.5017 8.658C68.7937 8.658 69.0577 8.728 69.2937 8.868C69.5337 9.008 69.7217 9.206 69.8577 9.462C69.9937 9.714 70.0617 10.008 70.0617 10.344C70.0617 10.676 69.9937 10.972 69.8577 11.232C69.7217 11.492 69.5337 11.694 69.2937 11.838C69.0577 11.982 68.7937 12.054 68.5017 12.054C68.2217 12.054 67.9737 11.992 67.7577 11.868C67.5457 11.74 67.3837 11.582 67.2717 11.394V13.56H66.7257V8.712H67.2717V9.318ZM69.5037 10.344C69.5037 10.096 69.4537 9.88 69.3537 9.696C69.2537 9.512 69.1177 9.372 68.9457 9.276C68.7777 9.18 68.5917 9.132 68.3877 9.132C68.1877 9.132 68.0017 9.182 67.8297 9.282C67.6617 9.378 67.5257 9.52 67.4217 9.708C67.3217 9.892 67.2717 10.106 67.2717 10.35C67.2717 10.598 67.3217 10.816 67.4217 11.004C67.5257 11.188 67.6617 11.33 67.8297 11.43C68.0017 11.526 68.1877 11.574 68.3877 11.574C68.5917 11.574 68.7777 11.526 68.9457 11.43C69.1177 11.33 69.2537 11.188 69.3537 11.004C69.4537 10.816 69.5037 10.596 69.5037 10.344ZM73.814 12.054C73.506 12.054 73.226 11.984 72.974 11.844C72.726 11.704 72.53 11.506 72.386 11.25C72.246 10.99 72.176 10.69 72.176 10.35C72.176 10.014 72.248 9.718 72.392 9.462C72.54 9.202 72.74 9.004 72.992 8.868C73.244 8.728 73.526 8.658 73.838 8.658C74.15 8.658 74.432 8.728 74.684 8.868C74.936 9.004 75.134 9.2 75.278 9.456C75.426 9.712 75.5 10.01 75.5 10.35C75.5 10.69 75.424 10.99 75.272 11.25C75.124 11.506 74.922 11.704 74.666 11.844C74.41 11.984 74.126 12.054 73.814 12.054ZM73.814 11.574C74.01 11.574 74.194 11.528 74.366 11.436C74.538 11.344 74.676 11.206 74.78 11.022C74.888 10.838 74.942 10.614 74.942 10.35C74.942 10.086 74.89 9.862 74.786 9.678C74.682 9.494 74.546 9.358 74.378 9.27C74.21 9.178 74.028 9.132 73.832 9.132C73.632 9.132 73.448 9.178 73.28 9.27C73.116 9.358 72.984 9.494 72.884 9.678C72.784 9.862 72.734 10.086 72.734 10.35C72.734 10.618 72.782 10.844 72.878 11.028C72.978 11.212 73.11 11.35 73.274 11.442C73.438 11.53 73.618 11.574 73.814 11.574ZM77.8199 8.652C78.2199 8.652 78.5439 8.774 78.7919 9.018C79.0399 9.258 79.1639 9.606 79.1639 10.062V12H78.6239V10.14C78.6239 9.812 78.5419 9.562 78.3779 9.39C78.2139 9.214 77.9899 9.126 77.7059 9.126C77.4179 9.126 77.1879 9.216 77.0159 9.396C76.8479 9.576 76.7639 9.838 76.7639 10.182V12H76.2179V8.712H76.7639V9.18C76.8719 9.012 77.0179 8.882 77.2019 8.79C77.3899 8.698 77.5959 8.652 77.8199 8.652Z" fill="white"/>
<path d="M41.47 23.07C41.1993 22.5007 40.8073 22.062 40.294 21.754C39.7807 21.4367 39.1833 21.278 38.502 21.278C37.8207 21.278 37.2047 21.4367 36.654 21.754C36.1127 22.062 35.6833 22.51 35.366 23.098C35.058 23.6767 34.904 24.3487 34.904 25.114C34.904 25.8793 35.058 26.5513 35.366 27.13C35.6833 27.7087 36.1127 28.1567 36.654 28.474C37.2047 28.782 37.8207 28.936 38.502 28.936C39.454 28.936 40.238 28.6513 40.854 28.082C41.47 27.5127 41.8293 26.7427 41.932 25.772H38.04V24.736H43.29V25.716C43.2153 26.5187 42.9633 27.256 42.534 27.928C42.1047 28.5907 41.54 29.118 40.84 29.51C40.14 29.8927 39.3607 30.084 38.502 30.084C37.5967 30.084 36.7707 29.874 36.024 29.454C35.2773 29.0247 34.6847 28.432 34.246 27.676C33.8167 26.92 33.602 26.066 33.602 25.114C33.602 24.162 33.8167 23.308 34.246 22.552C34.6847 21.7867 35.2773 21.194 36.024 20.774C36.7707 20.3447 37.5967 20.13 38.502 20.13C39.538 20.13 40.4527 20.3867 41.246 20.9C42.0487 21.4133 42.632 22.1367 42.996 23.07H41.47ZM48.3205 30.126C47.6018 30.126 46.9485 29.9627 46.3605 29.636C45.7818 29.3093 45.3245 28.8473 44.9885 28.25C44.6618 27.6433 44.4985 26.9433 44.4985 26.15C44.4985 25.366 44.6665 24.6753 45.0025 24.078C45.3478 23.4713 45.8145 23.0093 46.4025 22.692C46.9905 22.3653 47.6485 22.202 48.3765 22.202C49.1045 22.202 49.7625 22.3653 50.3505 22.692C50.9385 23.0093 51.4005 23.4667 51.7365 24.064C52.0818 24.6613 52.2545 25.3567 52.2545 26.15C52.2545 26.9433 52.0772 27.6433 51.7225 28.25C51.3772 28.8473 50.9058 29.3093 50.3085 29.636C49.7112 29.9627 49.0485 30.126 48.3205 30.126ZM48.3205 29.006C48.7778 29.006 49.2072 28.8987 49.6085 28.684C50.0098 28.4693 50.3318 28.1473 50.5745 27.718C50.8265 27.2887 50.9525 26.766 50.9525 26.15C50.9525 25.534 50.8312 25.0113 50.5885 24.582C50.3458 24.1527 50.0285 23.8353 49.6365 23.63C49.2445 23.4153 48.8198 23.308 48.3625 23.308C47.8958 23.308 47.4665 23.4153 47.0745 23.63C46.6918 23.8353 46.3838 24.1527 46.1505 24.582C45.9172 25.0113 45.8005 25.534 45.8005 26.15C45.8005 26.7753 45.9125 27.3027 46.1365 27.732C46.3698 28.1613 46.6778 28.4833 47.0605 28.698C47.4432 28.9033 47.8632 29.006 48.3205 29.006ZM57.2756 30.126C56.5569 30.126 55.9036 29.9627 55.3156 29.636C54.7369 29.3093 54.2796 28.8473 53.9436 28.25C53.6169 27.6433 53.4536 26.9433 53.4536 26.15C53.4536 25.366 53.6216 24.6753 53.9576 24.078C54.3029 23.4713 54.7696 23.0093 55.3576 22.692C55.9456 22.3653 56.6036 22.202 57.3316 22.202C58.0596 22.202 58.7176 22.3653 59.3056 22.692C59.8936 23.0093 60.3556 23.4667 60.6916 24.064C61.0369 24.6613 61.2096 25.3567 61.2096 26.15C61.2096 26.9433 61.0322 27.6433 60.6776 28.25C60.3322 28.8473 59.8609 29.3093 59.2636 29.636C58.6662 29.9627 58.0036 30.126 57.2756 30.126ZM57.2756 29.006C57.7329 29.006 58.1622 28.8987 58.5636 28.684C58.9649 28.4693 59.2869 28.1473 59.5296 27.718C59.7816 27.2887 59.9076 26.766 59.9076 26.15C59.9076 25.534 59.7862 25.0113 59.5436 24.582C59.3009 24.1527 58.9836 23.8353 58.5916 23.63C58.1996 23.4153 57.7749 23.308 57.3176 23.308C56.8509 23.308 56.4216 23.4153 56.0296 23.63C55.6469 23.8353 55.3389 24.1527 55.1056 24.582C54.8722 25.0113 54.7556 25.534 54.7556 26.15C54.7556 26.7753 54.8676 27.3027 55.0916 27.732C55.3249 28.1613 55.6329 28.4833 56.0156 28.698C56.3982 28.9033 56.8182 29.006 57.2756 29.006ZM66.0486 22.202C66.7113 22.202 67.29 22.3467 67.7846 22.636C68.2886 22.9253 68.662 23.2893 68.9046 23.728V22.328H70.1926V30.168C70.1926 30.868 70.0433 31.4887 69.7446 32.03C69.446 32.5807 69.0166 33.01 68.4566 33.318C67.906 33.626 67.262 33.78 66.5246 33.78C65.5166 33.78 64.6766 33.542 64.0046 33.066C63.3326 32.59 62.936 31.9413 62.8146 31.12H64.0746C64.2146 31.5867 64.504 31.96 64.9426 32.24C65.3813 32.5293 65.9086 32.674 66.5246 32.674C67.2246 32.674 67.794 32.4547 68.2326 32.016C68.6806 31.5773 68.9046 30.9613 68.9046 30.168V28.558C68.6526 29.006 68.2793 29.3793 67.7846 29.678C67.29 29.9767 66.7113 30.126 66.0486 30.126C65.3673 30.126 64.7466 29.958 64.1866 29.622C63.636 29.286 63.202 28.8147 62.8846 28.208C62.5673 27.6013 62.4086 26.9107 62.4086 26.136C62.4086 25.352 62.5673 24.666 62.8846 24.078C63.202 23.4807 63.636 23.0187 64.1866 22.692C64.7466 22.3653 65.3673 22.202 66.0486 22.202ZM68.9046 26.15C68.9046 25.5713 68.788 25.0673 68.5546 24.638C68.3213 24.2087 68.004 23.882 67.6026 23.658C67.2106 23.4247 66.7766 23.308 66.3006 23.308C65.8246 23.308 65.3906 23.42 64.9986 23.644C64.6066 23.868 64.294 24.1947 64.0606 24.624C63.8273 25.0533 63.7106 25.5573 63.7106 26.136C63.7106 26.724 63.8273 27.2373 64.0606 27.676C64.294 28.1053 64.6066 28.4367 64.9986 28.67C65.3906 28.894 65.8246 29.006 66.3006 29.006C66.7766 29.006 67.2106 28.894 67.6026 28.67C68.004 28.4367 68.3213 28.1053 68.5546 27.676C68.788 27.2373 68.9046 26.7287 68.9046 26.15ZM73.6196 19.64V30H72.3456V19.64H73.6196ZM82.7909 25.87C82.7909 26.1127 82.7769 26.3693 82.7489 26.64H76.6169C76.6636 27.396 76.9202 27.9887 77.3869 28.418C77.8629 28.838 78.4369 29.048 79.1089 29.048C79.6596 29.048 80.1169 28.922 80.4809 28.67C80.8542 28.4087 81.1156 28.0633 81.2649 27.634H82.6369C82.4316 28.3713 82.0209 28.9733 81.4049 29.44C80.7889 29.8973 80.0236 30.126 79.1089 30.126C78.3809 30.126 77.7276 29.9627 77.1489 29.636C76.5796 29.3093 76.1316 28.8473 75.8049 28.25C75.4782 27.6433 75.3149 26.9433 75.3149 26.15C75.3149 25.3567 75.4736 24.6613 75.7909 24.064C76.1082 23.4667 76.5516 23.0093 77.1209 22.692C77.6996 22.3653 78.3622 22.202 79.1089 22.202C79.8369 22.202 80.4809 22.3607 81.0409 22.678C81.6009 22.9953 82.0302 23.434 82.3289 23.994C82.6369 24.5447 82.7909 25.17 82.7909 25.87ZM81.4749 25.604C81.4749 25.1187 81.3676 24.7033 81.1529 24.358C80.9382 24.0033 80.6442 23.7373 80.2709 23.56C79.9069 23.3733 79.5009 23.28 79.0529 23.28C78.4089 23.28 77.8582 23.4853 77.4009 23.896C76.9529 24.3067 76.6962 24.876 76.6309 25.604H81.4749ZM94.729 23.098C94.729 23.91 94.449 24.5867 93.889 25.128C93.3383 25.66 92.4936 25.926 91.355 25.926H89.479V30H88.205V20.242H91.355C92.4563 20.242 93.2916 20.508 93.861 21.04C94.4396 21.572 94.729 22.258 94.729 23.098ZM91.355 24.876C92.0643 24.876 92.587 24.722 92.923 24.414C93.259 24.106 93.427 23.6673 93.427 23.098C93.427 21.894 92.7363 21.292 91.355 21.292H89.479V24.876H91.355ZM97.5864 19.64V30H96.3124V19.64H97.5864ZM99.2817 26.136C99.2817 25.352 99.4404 24.666 99.7577 24.078C100.075 23.4807 100.509 23.0187 101.06 22.692C101.62 22.3653 102.24 22.202 102.922 22.202C103.594 22.202 104.177 22.3467 104.672 22.636C105.166 22.9253 105.535 23.2893 105.778 23.728V22.328H107.066V30H105.778V28.572C105.526 29.02 105.148 29.3933 104.644 29.692C104.149 29.9813 103.57 30.126 102.908 30.126C102.226 30.126 101.61 29.958 101.06 29.622C100.509 29.286 100.075 28.8147 99.7577 28.208C99.4404 27.6013 99.2817 26.9107 99.2817 26.136ZM105.778 26.15C105.778 25.5713 105.661 25.0673 105.428 24.638C105.194 24.2087 104.877 23.882 104.476 23.658C104.084 23.4247 103.65 23.308 103.174 23.308C102.698 23.308 102.264 23.42 101.872 23.644C101.48 23.868 101.167 24.1947 100.934 24.624C100.7 25.0533 100.584 25.5573 100.584 26.136C100.584 26.724 100.7 27.2373 100.934 27.676C101.167 28.1053 101.48 28.4367 101.872 28.67C102.264 28.894 102.698 29.006 103.174 29.006C103.65 29.006 104.084 28.894 104.476 28.67C104.877 28.4367 105.194 28.1053 105.428 27.676C105.661 27.2373 105.778 26.7287 105.778 26.15ZM115.827 22.328L111.207 33.612H109.891L111.403 29.916L108.309 22.328H109.723L112.131 28.544L114.511 22.328H115.827Z" fill="white"/>
<path d="M6.69604 32.7737V7.04688L29.956 19.5579L6.69604 32.7737Z" fill="#A6A6A6"/>
<path d="M6.69604 7.04688L23.2599 23.4346L29.956 19.5579L6.69604 7.04688Z" fill="#DDDDDD"/>
<path d="M23.0837 15.8594L6.69604 32.7757L29.956 19.5598L23.0837 15.8594Z" fill="#8F8F8F"/>
<path d="M23.2599 23.4365L29.956 19.5598L23.0837 15.8594L19.3833 19.5598L23.2599 23.4365Z" fill="#F2F2F2"/>
</svg>
