<svg width="40" height="40" viewBox="0 0 40 40" fill="none" xmlns="http://www.w3.org/2000/svg">
<path d="M24.6454 17.5173C24.5525 17.383 24.4872 17.2318 24.4533 17.0725C24.4195 16.9131 24.4177 16.7487 24.448 16.5887C24.4783 16.4286 24.5402 16.2761 24.6301 16.1397C24.72 16.0034 24.8362 15.886 24.9719 15.7942L35.5438 8.62621C35.8176 8.45835 36.1463 8.40167 36.4612 8.46797C36.7762 8.53427 37.0532 8.71845 37.2345 8.98211C37.4158 9.24577 37.4874 9.56859 37.4344 9.88328C37.3814 10.198 37.2079 10.4803 36.9501 10.6713L26.3766 17.8393C26.1694 17.9809 25.9236 18.0565 25.6719 18.0561C25.4696 18.0553 25.2705 18.0059 25.0916 17.912C24.9128 17.8182 24.7597 17.6827 24.6454 17.5173ZM37.2813 30.6907C37.094 30.9616 36.8057 31.1478 36.4799 31.2082C36.154 31.2686 35.8173 31.1982 35.5438 31.0127L21.2501 21.3212L14.6079 25.8232C15.1147 27.0984 15.1295 28.5139 14.6496 29.7992C14.1696 31.0845 13.2286 32.1496 12.0062 32.7909C10.7838 33.4322 9.36579 33.6047 8.02311 33.2756C6.68043 32.9464 5.50722 32.1387 4.72763 31.0066C3.94804 29.8746 3.61674 28.4976 3.79703 27.1388C3.97732 25.7801 4.65655 24.5347 5.70496 23.6408C6.75336 22.7469 8.09742 22.267 9.48034 22.2929C10.8633 22.3188 12.1881 22.8486 13.2016 23.7812L19.036 19.8194L13.1938 15.8577C12.1837 16.7854 10.864 17.312 9.48691 17.3369C8.10979 17.3618 6.77166 16.8832 5.72806 15.9926C4.68446 15.1019 4.0085 13.8616 3.82927 12.5085C3.65005 11.1554 3.9801 9.78429 4.75642 8.657C5.53273 7.5297 6.70091 6.72522 8.03788 6.39717C9.37484 6.06912 10.7869 6.24048 12.0045 6.87855C13.222 7.51661 14.1597 8.57666 14.6385 9.85627C15.1173 11.1359 15.1036 12.5454 14.6001 13.8157L36.9438 28.9675C37.0804 29.0585 37.1976 29.1753 37.2885 29.3112C37.3795 29.4471 37.4424 29.5995 37.4738 29.7596C37.5052 29.9197 37.5043 30.0844 37.4713 30.2442C37.4382 30.4039 37.3737 30.5557 37.2813 30.6907ZM12.5001 27.8699C12.5002 27.1535 12.2497 26.4593 11.7911 25.9054C11.3326 25.3516 10.6944 24.9724 9.98532 24.8325C9.27624 24.6926 8.54015 24.8007 7.90246 25.1382C7.26477 25.4758 6.76495 26.022 6.48815 26.6838C6.21135 27.3456 6.1747 28.082 6.38446 28.7675C6.59421 29.4531 7.03738 30.0454 7.63846 30.4435C8.23954 30.8415 8.96134 31.0208 9.68086 30.9507C10.4004 30.8806 11.0731 30.5655 11.5844 30.059C11.8757 29.7723 12.1066 29.4312 12.2638 29.0554C12.4209 28.6796 12.5013 28.2767 12.5001 27.8699ZM11.5844 13.9565C12.0216 13.5235 12.3193 12.9718 12.4399 12.3712C12.5606 11.7705 12.4988 11.1479 12.2623 10.5821C12.0258 10.0162 11.6252 9.5326 11.1113 9.19233C10.5974 8.85206 9.99316 8.67044 9.37505 8.67044C8.75695 8.67044 8.15272 8.85206 7.6388 9.19233C7.12487 9.5326 6.72434 10.0162 6.48784 10.5821C6.25134 11.1479 6.18951 11.7705 6.31017 12.3712C6.43082 12.9718 6.72854 13.5235 7.16568 13.9565C7.45426 14.2468 7.7982 14.4772 8.1775 14.6345C8.55679 14.7918 8.96387 14.8728 9.37505 14.8728C9.78624 14.8728 10.1933 14.7918 10.5726 14.6345C10.9519 14.4772 11.2958 14.2468 11.5844 13.9565Z" fill="white"/>
</svg>
