<svg width="263" height="148" viewBox="0 0 263 148" fill="none" xmlns="http://www.w3.org/2000/svg">
<path d="M99.7169 67.7246C100.238 67.535 100.76 67.3454 101.281 67.1084L102.513 66.6345L103.129 66.3975L103.224 66.3502L103.319 66.2554L103.556 66.0658C104.219 65.4971 104.883 64.9284 105.499 64.3122C106.115 63.6961 106.684 63.08 107.3 62.4165C109.67 59.8573 111.992 57.2506 114.172 54.5492C114.172 54.5492 114.551 54.0279 115.167 53.317C115.736 52.5587 116.542 51.5634 117.205 50.5208C117.537 49.9994 117.821 49.4307 118.058 48.9094C118.295 48.3407 118.437 47.8193 118.485 47.3454C118.532 46.8715 118.532 46.4923 118.532 46.208C118.532 45.9236 118.485 45.7814 118.485 45.7814C118.485 45.7814 118.485 45.8288 118.532 45.8762C118.532 45.9236 118.58 46.0658 118.58 46.1606C118.627 46.4449 118.627 46.8241 118.58 47.2506C118.532 47.7245 118.437 48.2459 118.248 48.7672C118.058 49.2885 117.774 49.8572 117.489 50.3786C116.873 51.4212 116.115 52.4165 115.594 53.1274C115.072 53.8383 114.693 54.3596 114.693 54.3596C112.513 57.2032 110.238 59.952 107.821 62.5587C107.205 63.2222 106.636 63.8857 106.02 64.5492C105.404 65.2127 104.741 65.8288 104.077 66.3975L103.84 66.6345L103.698 66.7293L103.651 66.7767L103.603 66.8241L103.508 66.8715L102.892 67.1558L101.66 67.6772C101.328 67.8193 100.997 67.9615 100.665 68.1037C100.712 68.1037 100.76 68.1511 100.807 68.1511C101.565 67.9615 102.324 67.772 103.034 67.5824C103.034 67.5824 103.319 67.4876 103.556 67.4402C103.84 67.3928 104.125 67.298 104.125 67.3454C104.125 67.3928 103.888 67.535 103.603 67.6772C103.319 67.8193 103.082 67.9141 103.082 67.9141C102.608 68.1511 102.087 68.3407 101.613 68.5303C101.755 68.625 101.897 68.6724 102.087 68.7672L101.992 68.625C102.466 68.4355 102.94 68.2933 103.461 68.1985C103.461 68.1985 103.651 68.1511 103.793 68.1511C103.982 68.1511 104.125 68.1511 104.125 68.1985C104.125 68.2459 103.982 68.3407 103.84 68.3881C103.698 68.4829 103.508 68.5303 103.508 68.5303C103.177 68.6724 102.892 68.862 102.608 69.0516C103.556 69.5255 104.456 69.9994 105.262 70.5208C105.546 70.663 105.736 70.8999 105.925 71.1369C108.058 67.2506 110.475 63.5066 113.082 59.952C113.082 59.952 113.982 58.6724 114.978 57.4876C115.452 56.8715 115.973 56.2554 116.352 55.8288C116.731 55.4023 116.968 55.0705 117.016 55.1179C117.016 55.1179 116.968 55.2127 116.873 55.3549C116.779 55.4971 116.636 55.6866 116.447 55.971C116.068 56.4449 115.594 57.1084 115.12 57.7719C114.172 59.099 113.224 60.426 113.224 60.426C110.665 64.1227 108.39 67.9615 106.305 71.9426L106.21 71.8952C106.21 71.9426 106.21 71.9426 106.21 71.9426C106.21 71.99 106.21 72.0848 106.257 72.1322C112.181 60.6156 119.67 51.6108 128.532 45.4023C133.129 42.0373 135.499 32.8904 133.603 25.8288C132.134 20.4259 128.485 17.1558 123.271 16.5871C121.471 16.4923 119.764 17.1558 118.248 18.388C118.437 18.2458 118.627 18.1036 118.816 18.0089C119.954 17.298 121.234 16.8714 122.561 16.7766C121.234 16.9662 120.049 17.5349 119.006 18.3406C117.963 19.0989 117.158 20.0942 116.447 21.1368C115.783 22.1795 115.262 23.3169 114.788 24.5018C114.362 25.6866 114.03 26.8714 113.793 28.1037C113.319 30.5207 113.271 33.08 113.793 35.5444C114.314 38.0089 115.357 40.426 117.016 42.5113C115.12 40.6155 113.793 38.1985 113.129 35.6866C113.082 35.5444 113.082 35.4496 113.035 35.3075C113.508 38.0089 114.741 40.3786 117.063 43.3643C118.437 45.1179 118.532 47.5824 117.347 49.6677C114.456 54.7388 109.575 60.5208 103.224 66.3502L103.177 66.3975L103.082 66.4449C101.802 66.8715 100.617 67.298 99.48 67.7246C99.5274 67.6298 99.6222 67.6772 99.7169 67.7246ZM132.845 29.5255C133.177 32.606 132.608 35.8288 131.044 38.625C132.276 35.6392 132.608 32.5586 132.276 29.5255C131.944 26.5397 130.949 23.6013 129.053 20.9473C131.281 23.4117 132.513 26.4449 132.845 29.5255ZM113.556 29.5255C113.793 26.6345 114.741 23.7435 116.399 21.279C115.072 23.9804 114.362 26.7766 114.125 29.6202C113.888 32.4639 114.077 35.3075 114.93 38.2459C113.698 35.4496 113.271 32.4639 113.556 29.5255ZM117.395 40.426C115.925 38.0563 115.12 34.9283 115.12 31.6108C115.167 24.6913 118.816 19.0989 123.271 19.0989C123.271 19.0989 123.271 19.0989 123.319 19.0989C125.404 19.0989 127.3 20.2837 128.817 22.4165C128.817 22.3691 128.769 22.3691 128.769 22.3217C128.2 21.3738 127.537 20.4259 126.636 19.7624C125.736 19.0989 124.598 18.6724 123.414 18.8619C124.551 18.5302 125.878 18.8145 126.873 19.4781C127.916 20.1416 128.674 21.0894 129.338 22.0373L129.812 22.7956L130.049 23.1747C130.096 23.3169 130.191 23.4591 130.238 23.5539L130.617 24.3596C130.712 24.6439 130.854 24.8809 130.949 25.1653L131.091 25.5918C131.139 25.734 131.186 25.8762 131.234 26.0183L131.471 26.8714C131.565 27.1558 131.613 27.4402 131.66 27.7245C131.708 28.0089 131.802 28.2932 131.85 28.5776L131.992 29.4307C132.039 29.715 132.039 29.9994 132.087 30.2838C132.134 30.8525 132.134 31.4686 132.134 32.0373C132.087 33.2221 131.944 34.3596 131.66 35.497C131.139 37.7719 130.096 39.9994 128.674 41.8951C129.859 39.8098 130.665 37.5823 131.044 35.3549C131.091 35.0231 131.139 34.6913 131.186 34.407C130.333 39.9994 127.11 44.2174 123.224 44.2174C123.224 44.2174 123.224 44.2174 123.177 44.2174C120.949 44.2174 118.911 42.843 117.395 40.426Z" fill="white"/>
<path d="M98.2004 95.7391L95.8308 87.6822L95.0251 90.6206C95.0251 90.6206 94.0772 94.1751 93.9824 94.1277C93.8876 94.1277 94.7407 90.3362 94.7407 90.3362L95.5464 86.7343L95.3094 85.8338L92.6554 95.976C92.6554 95.976 90.9018 102.516 90.8544 102.469C90.7597 102.469 92.4184 95.5495 92.4184 95.5495L95.0251 84.6964L94.7881 83.8907C92.6554 91.9476 90.7123 100.052 88.9587 108.204C88.9587 108.204 88.3426 111.142 87.7265 114.128C87.4421 115.597 87.1104 117.066 86.8734 118.204C86.7786 118.772 86.6838 119.199 86.589 119.531C86.5416 119.673 86.5416 119.815 86.4943 119.91C86.4943 120.005 86.4469 120.052 86.4469 120.052C86.4469 120.052 86.4469 120.005 86.4469 119.91C86.4469 119.815 86.4943 119.673 86.4943 119.531C86.5416 119.199 86.6364 118.725 86.7312 118.109C86.9208 116.924 87.2052 115.36 87.4895 113.843C88.0582 110.715 88.6743 107.635 88.6743 107.635C90.2857 99.8149 92.0393 91.995 93.9824 84.2225C93.7454 84.6016 93.5559 85.0281 93.3663 85.4547C93.2241 85.8338 93.0819 86.213 92.9872 86.6395L92.6554 87.9192C91.8023 91.2841 90.9966 94.6964 90.2383 98.0613C88.6743 104.839 87.2052 111.663 85.8781 118.488C85.8781 118.488 84.9777 123.132 84.172 127.777C83.9824 128.962 83.7928 130.099 83.6033 131.189C83.4137 132.279 83.2715 133.322 83.1293 134.175C82.9871 135.028 82.8924 135.787 82.7976 136.308C82.7502 136.545 82.7028 136.782 82.7028 136.877C82.6554 137.019 82.6554 137.066 82.6554 137.066C82.6554 137.066 82.6554 136.971 82.6554 136.829C82.6554 136.687 82.7028 136.45 82.7028 136.213C82.7502 135.692 82.845 134.886 82.9397 133.986C83.0819 133.085 83.2241 131.995 83.3663 130.858C83.5559 129.72 83.698 128.488 83.8876 127.256C84.2668 124.791 84.6459 122.374 84.9777 120.526C85.3094 118.677 85.499 117.493 85.499 117.493C86.7312 110.81 88.0582 104.128 89.5274 97.4452C90.2383 94.1277 90.9966 90.8101 91.8023 87.4926L92.0867 86.2604C92.1815 85.8338 92.3236 85.4073 92.5132 84.9808C92.845 84.1751 93.3189 83.3694 93.8876 82.6585C93.9824 82.5163 94.0772 82.4215 94.172 82.3267L93.7454 80.8101C93.7454 80.8101 93.7454 80.8575 93.6981 80.8575C93.6507 80.8575 93.6507 80.7154 93.6507 80.5258L93.1767 78.9618C93.0345 79.7201 92.8924 80.431 92.7028 81.1893C92.7028 81.1893 92.608 81.6632 92.4658 82.0898C92.3236 82.5637 92.1815 82.9902 92.1815 82.9902C92.1341 82.9902 92.1815 82.4689 92.2762 81.995C92.3236 81.521 92.4184 80.9997 92.4184 80.9997C92.5606 79.8623 92.7028 78.7248 92.845 77.5874L92.6554 77.0187C92.1815 79.5305 91.6601 82.0898 91.0914 84.5542C91.0914 84.5542 90.8544 85.5495 90.5701 86.5447C90.4279 87.0187 90.2857 87.54 90.1909 87.8718C90.0962 88.2509 90.0014 88.4879 90.0014 88.4879C90.0014 88.4879 90.0488 88.2035 90.0962 87.8244C90.1909 87.4452 90.2857 86.9239 90.3805 86.4026C90.5701 85.3599 90.8071 84.3173 90.8071 84.3173C91.3758 81.4263 91.8497 78.5353 92.2289 75.6443H92.2762L92.1815 75.3125C86.3521 102.848 82.845 125.881 81.5179 145.55L98.2004 95.7391Z" fill="white"/>
<path d="M109.907 30.1914C109.907 29.4805 109.954 28.7696 110.096 28.0587C110.096 28.0587 110.144 27.8217 110.239 27.5374C110.333 27.3004 110.428 27.0634 110.428 27.0634C110.476 27.0634 110.428 27.3478 110.428 27.5848C110.428 27.8691 110.428 28.1061 110.428 28.1061C110.428 28.58 110.428 29.054 110.476 29.5279C110.476 29.3383 110.523 29.1961 110.523 29.0066C110.523 29.0066 110.57 28.8644 110.618 28.7222C110.665 28.58 110.713 28.4378 110.76 28.4378C110.807 28.4378 110.807 28.58 110.855 28.7222C110.855 28.8644 110.902 29.0066 110.902 29.0066C110.902 29.2435 110.949 29.4805 111.044 29.6701C111.044 29.4805 111.092 29.2909 111.139 29.1487C111.139 29.1487 111.186 29.054 111.186 28.9118C111.234 28.817 111.281 28.7222 111.329 28.7222C111.376 28.7222 111.376 28.8644 111.423 28.9592C111.423 29.054 111.471 29.1961 111.471 29.1961C111.471 29.3383 111.518 29.4805 111.566 29.6227L111.613 29.2909C111.613 29.2909 111.66 28.9592 111.755 28.9592C111.85 28.9592 111.945 29.2909 111.945 29.2909L112.04 29.6227C112.04 29.4805 112.04 29.3383 112.087 29.1961C112.229 28.0113 112.466 26.9212 112.75 25.8786H112.703C112.608 25.9734 112.513 26.1156 112.466 26.2577C112.466 26.2577 112.419 26.3051 112.371 26.3999C112.324 26.4473 112.276 26.5421 112.229 26.5421C112.182 26.5421 112.134 26.4473 112.134 26.3525C112.134 26.2577 112.134 26.163 112.134 26.163C112.134 26.0208 112.134 25.8786 112.182 25.7838C112.134 25.7838 112.087 25.7364 112.04 25.7364C111.992 25.8312 111.945 25.926 111.897 26.0682C111.897 26.0682 111.85 26.163 111.803 26.2103C111.755 26.3051 111.708 26.3525 111.66 26.3525C111.613 26.3525 111.566 26.2577 111.566 26.163C111.566 26.0682 111.518 25.9734 111.518 25.9734C111.518 25.8312 111.518 25.689 111.518 25.4994C111.471 25.4521 111.423 25.4521 111.376 25.4047C111.281 25.689 111.186 25.926 111.139 26.2103C111.139 26.2103 111.092 26.3525 111.092 26.4947C111.044 26.6369 111.044 26.7791 110.997 26.7791C110.949 26.7791 110.902 26.6369 110.855 26.4947C110.807 26.3525 110.807 26.2103 110.807 26.2103C110.76 25.8312 110.807 25.4521 110.855 25.0255C110.76 24.9781 110.713 24.8833 110.665 24.8359C110.476 25.0729 110.049 25.9734 109.765 27.49C109.48 29.054 109.528 30.0018 109.622 30.2862C109.67 30.2388 109.812 30.1914 109.907 30.1914Z" fill="white"/>
<path d="M123.177 44.221C127.063 44.221 130.333 40.003 131.139 34.4106C131.091 34.7424 131.044 35.0741 130.997 35.3585C130.665 37.6334 129.859 39.8135 128.627 41.8988C130.049 40.003 131.091 37.8229 131.613 35.5007C131.897 34.3632 131.992 33.1784 132.087 32.0409C132.087 31.4722 132.087 30.8561 132.039 30.2874C131.992 30.003 131.992 29.7187 131.944 29.4343L131.802 28.5812C131.755 28.2969 131.707 28.0125 131.613 27.7281C131.565 27.4438 131.471 27.1594 131.423 26.8751L131.186 26.022C131.139 25.8798 131.091 25.7376 131.044 25.5954L130.902 25.1689C130.807 24.8845 130.665 24.6476 130.57 24.3632L130.191 23.5575C130.143 23.4153 130.049 23.2732 130.001 23.1784L129.764 22.7992L129.29 22.0409C128.627 21.0457 127.869 20.0978 126.826 19.4817C125.831 18.8182 124.504 18.5338 123.366 18.8656C124.551 18.676 125.689 19.1025 126.589 19.766C127.489 20.4296 128.153 21.3774 128.722 22.3253C128.722 22.3727 128.769 22.3727 128.769 22.4201C127.3 20.2874 125.357 19.1025 123.271 19.1025C123.271 19.1025 123.271 19.1025 123.224 19.1025C118.769 19.1025 115.12 24.695 115.072 31.6144C115.072 34.9319 115.878 38.0599 117.347 40.4296C118.911 42.8466 120.949 44.221 123.177 44.221ZM123.271 19.9556C125.215 19.9556 127.016 21.1878 128.343 23.3205C129.717 25.548 130.523 28.5338 130.475 31.6618C130.428 38.1073 127.158 43.3206 123.177 43.3206C123.177 43.3206 123.177 43.3206 123.129 43.3206C121.234 43.3206 119.433 42.0883 118.058 39.9556C116.684 37.7281 115.878 34.7424 115.925 31.6144C116.02 25.1689 119.29 19.9556 123.271 19.9556Z" fill="black"/>
<path d="M114.125 29.6225C114.362 26.7789 115.073 23.9827 116.4 21.2812C114.741 23.7931 113.793 26.6367 113.556 29.5277C113.319 32.4187 113.746 35.4519 114.93 38.2007C114.077 35.3097 113.84 32.4661 114.125 29.6225Z" fill="black"/>
<path d="M131.092 38.6772C132.656 35.881 133.224 32.6583 132.893 29.5777C132.561 26.4971 131.281 23.4165 129.101 21.0469C130.949 23.7009 131.945 26.6393 132.324 29.6251C132.608 32.5635 132.276 35.6914 131.092 38.6772Z" fill="black"/>
<path d="M72.7506 17.6735C71.6131 18.2423 70.6179 19.0006 69.7174 19.9484C66.9212 22.9816 65.5468 27.8157 65.9259 33.2186C66.3051 38.3371 68.2956 42.8394 71.0444 45.0669C74.362 47.6262 77.8691 50.4698 80.6179 54.1665C83.2245 57.6736 82.9402 60.1854 82.7506 61.702C82.7032 62.2707 82.6084 62.7447 82.7506 62.9342C82.8928 63.1712 83.6511 63.4082 84.362 63.5978C85.9733 64.0717 88.2008 64.6878 89.3383 66.8205C90.5231 69.048 91.5658 71.0385 92.4662 72.9817V73.0291L114.03 146.963C113.414 126.252 110.571 101.702 105.357 72.0338C105.31 71.702 105.073 71.3703 104.789 71.2281C102.277 69.7115 99.2909 68.3371 95.689 67.0101L95.5942 66.9627L95.5468 66.9153C89.4331 60.8016 84.7885 54.8774 82.0871 49.6641C80.997 47.5788 81.2814 45.0669 82.7506 43.266C86.779 38.3845 88.0586 34.8773 87.7269 29.4271C87.3951 25.9674 86.5421 23.2186 85.1677 20.9911C82.9876 17.1996 82.6558 14.7825 82.3714 12.6498C82.1819 11.1806 81.9923 9.94841 81.2814 8.47922C78.2008 1.93893 73.8406 0.943663 73.7932 0.943663H73.7458C73.2245 0.75409 72.8928 1.03845 72.7506 1.3702C72.6084 1.74935 72.6558 2.27068 73.2245 2.50765C73.3667 2.60243 76.0681 3.97684 77.3951 6.48869C77.3003 6.29912 77.2529 6.10955 77.1582 5.96737C76.542 4.78253 75.689 3.64509 74.5515 2.79201C77.1108 3.97684 78.8643 6.82045 78.8643 9.75884C78.8643 12.6972 77.1108 15.5408 74.5041 16.8205C75.689 15.92 76.542 14.7825 77.1108 13.5977C77.6795 12.3655 78.0112 11.0385 78.0112 9.75884C78.0112 9.71145 78.0112 9.71145 78.0112 9.66405C78.0112 9.71145 78.0112 9.75884 78.0112 9.75884C77.8691 11.3702 77.2529 13.029 76.1629 14.6404C75.2624 15.92 74.0776 16.9626 72.7506 17.6735ZM65.9259 30.7541C65.9733 28.6688 66.3999 26.6309 67.2055 24.6878C68.0112 22.792 69.2435 20.9911 70.8074 19.5693C69.433 21.1807 68.4378 23.029 67.7743 24.9247C67.1108 26.8205 66.779 28.811 66.7316 30.8015C66.6368 34.7826 67.6795 38.7162 69.433 42.6025C67.2055 39.048 65.8311 34.9247 65.9259 30.7541ZM69.1487 40.1854C67.5373 37.3418 66.8264 34.1191 66.9212 30.9911C67.016 27.8631 67.9164 24.7352 69.67 22.0337C68.2482 24.9721 67.5847 28.0053 67.4899 31.0385C67.4425 34.0717 67.9164 37.1522 69.1487 40.1854ZM83.1771 62.176C83.2245 60.7068 83.1297 59.3797 82.798 58.1001C82.4662 56.8205 81.9449 55.6357 81.0918 54.4508C82.324 55.2091 83.2719 56.4888 83.6037 57.9106C83.9828 59.3324 83.7932 60.8489 83.1771 62.176ZM96.6843 74.3561C96.779 73.6452 97.1108 73.0291 97.6795 72.6025C98.1535 72.2234 98.7222 72.0338 99.2909 72.0338C99.3857 72.0338 99.4805 72.0338 99.6226 72.0338C100.334 72.1286 100.95 72.4603 101.376 73.0291C101.803 73.5978 101.992 74.2613 101.898 74.9722C101.803 75.6831 101.471 76.2992 100.902 76.7257C100.334 77.1523 99.67 77.3419 98.9591 77.2471C98.2482 77.1523 97.6321 76.8205 97.2056 76.2518C96.8264 75.7305 96.5895 75.067 96.6843 74.3561ZM111.329 119.285C111.329 119.285 111.898 123.977 112.324 128.716C112.419 129.901 112.514 131.086 112.608 132.176C112.703 133.266 112.751 134.309 112.845 135.209C112.893 136.11 112.94 136.821 112.988 137.342C112.988 137.579 112.988 137.816 112.988 137.958C112.988 138.1 112.988 138.148 112.988 138.195C112.988 138.195 112.988 138.1 112.94 137.958C112.94 137.816 112.893 137.579 112.893 137.342C112.845 136.821 112.751 136.015 112.656 135.114C112.561 134.214 112.466 133.124 112.324 131.939C112.182 130.802 112.087 129.569 111.945 128.337C111.661 125.873 111.376 123.408 111.139 121.56C110.902 119.712 110.76 118.479 110.76 118.479C109.86 111.749 108.817 105.02 107.68 98.2897C107.111 94.9248 106.495 91.6073 105.879 88.2423L105.642 87.0101C105.547 86.631 105.452 86.2518 105.31 85.8727C105.215 85.6357 105.12 85.3513 104.978 85.1144C106.447 93.2186 107.727 101.323 108.817 109.475C108.817 109.475 109.196 112.46 109.575 115.446C109.765 116.963 109.907 118.432 110.049 119.569C110.097 120.138 110.144 120.612 110.191 120.944C110.191 121.086 110.191 121.228 110.239 121.323C110.239 121.418 110.239 121.465 110.239 121.465C110.239 121.465 110.239 121.418 110.191 121.323C110.191 121.228 110.144 121.086 110.144 120.944C110.097 120.612 110.049 120.091 109.954 119.522C109.812 118.337 109.575 116.773 109.338 115.209C108.864 112.081 108.438 108.953 108.438 108.953C107.158 100.47 105.689 91.9864 104.03 83.5504C103.888 83.3608 103.698 83.1712 103.556 82.9817L105.926 96.8679C105.926 96.8679 107.063 103.645 106.969 103.645C106.874 103.645 105.499 96.5836 105.499 96.5836L102.703 82.176C102.608 82.1286 102.561 82.0338 102.466 81.9864C102.419 81.939 102.371 81.8916 102.277 81.8442L103.698 90.612C103.698 90.612 104.409 95.067 104.315 95.067C104.22 95.067 103.319 90.4698 103.319 90.4698L101.518 81.4177C101.329 81.3229 101.092 81.1807 100.902 81.0859L101.187 83.3134C101.187 83.3134 101.376 84.7826 101.281 84.7826C101.187 84.7826 100.855 83.3134 100.855 83.3134L100.239 80.849C99.8122 80.7068 99.3857 80.612 99.0065 80.5172C98.6274 80.4224 98.2956 80.3276 98.0113 80.2328C97.4425 80.0907 97.2056 79.9011 97.2056 79.7589C97.2056 79.6167 97.4899 79.5693 98.0587 79.5219C98.343 79.5219 98.7222 79.5219 99.1487 79.5693C99.5753 79.6167 100.097 79.7115 100.713 79.9011C104.315 81.1333 106.495 84.83 106.732 88.3371C107.3 91.7495 107.869 95.2092 108.438 98.6215C109.528 105.446 110.523 112.366 111.329 119.285ZM100.571 69.4745C101.281 69.7589 101.992 70.0907 102.703 70.4224C103.035 70.612 103.414 70.7542 103.746 70.9437L104.267 71.2281L104.931 71.6072L105.262 73.1712L105.547 74.5456C105.736 75.4461 105.926 76.394 106.068 77.3419C106.4 79.1902 106.684 81.0859 106.921 83.0765C106.353 81.1807 105.831 79.3324 105.405 77.484C105.168 76.5836 104.931 75.6357 104.741 74.7352L104.409 73.3608L104.172 72.176C104.267 72.2234 103.983 72.0812 103.841 71.9864L103.367 71.702L102.371 71.1333C101.708 70.7542 101.044 70.375 100.334 70.0433C98.9591 69.3324 97.5373 68.6689 96.0681 68.0054C97.6321 68.3845 99.1013 68.8584 100.571 69.4745ZM80.997 46.7257C80.997 47.247 81.0918 47.8158 81.234 48.3371C81.5184 49.3797 82.1345 50.2802 82.6558 51.2281C83.7458 53.0764 84.8833 54.8774 86.0681 56.5835C87.3004 58.2897 88.58 59.9959 89.9544 61.6072C91.3288 63.2186 92.798 64.83 94.4094 66.394C92.7032 64.9722 91.0918 63.4556 89.6226 61.8916C88.1534 60.2802 86.8264 58.6215 85.5942 56.8679C84.362 55.1143 83.2719 53.3134 82.2767 51.3703C82.0397 50.8963 81.8027 50.4224 81.5658 49.9011C81.3288 49.4271 81.1392 48.9058 80.997 48.3371C80.8548 47.8158 80.8075 47.247 80.8549 46.6783C80.9022 46.1096 81.0918 45.5883 81.3288 45.1143C81.1392 45.6357 81.0444 46.2044 80.997 46.7257ZM86.2103 29.5219C86.4473 32.3655 86.0207 35.3513 84.7411 38.0527C85.6416 35.2091 85.8786 32.3655 85.6416 29.5693C85.4046 26.7731 84.6463 24.0243 83.2719 21.4176C84.9781 23.8347 85.9259 26.6309 86.2103 29.5219ZM81.6605 10.7541C81.8975 12.4603 82.2293 14.0242 82.6558 15.5408C83.0823 17.0574 83.6511 18.574 84.362 20.138C82.2767 17.3892 81.3288 14.119 81.6605 10.7541ZM79.1487 11.5598C79.433 10.2328 79.4804 8.81097 79.0539 7.38917C79.8596 8.66879 80.0492 10.2802 79.7174 11.702C79.3857 13.1712 78.4378 14.4508 77.2056 15.2091C78.2008 14.119 78.8169 12.8394 79.1487 11.5598ZM76.9686 19.0006C77.016 19.0006 77.1108 19.0006 77.1582 19.0006C79.3383 19.0953 81.3762 20.4698 82.8454 22.9342C83.1771 23.5029 83.4615 24.119 83.7458 24.7352C83.6511 24.4034 83.5089 24.119 83.3667 23.7873C82.6084 21.9863 81.3762 20.3276 79.5752 19.2849C80.5705 19.6641 81.4236 20.2328 82.1819 20.9911C82.9402 21.7494 83.5089 22.6025 83.9828 23.5029C84.9307 25.3513 85.4046 27.3892 85.5942 29.3797C85.9259 33.4555 84.8833 37.6262 82.561 41.0859C83.4141 39.2849 84.0302 37.4366 84.4094 35.5882C83.1771 40.5646 80.0018 44.1191 76.3999 44.0243C71.9449 43.8821 68.4852 38.1475 68.7221 31.2281C68.8169 27.9105 69.7648 24.8299 71.3288 22.5077C72.798 20.2802 74.8359 19.0006 76.9686 19.0006Z" fill="white"/>
<path d="M97.6316 74.415C97.7264 74.7468 97.916 74.9838 98.0581 75.2207C98.2477 75.4103 98.3899 75.5525 98.5795 75.6947C98.769 75.8368 98.9586 75.9316 99.1956 76.0264C99.4325 76.1212 99.7169 76.1686 100.096 76.1212C99.9065 76.4056 99.6221 76.5477 99.2904 76.6425C99.7169 76.6425 100.143 76.5003 100.475 76.216C100.902 75.8842 101.139 75.4577 101.186 74.9364C101.233 74.6046 101.186 74.3202 101.091 74.0359C101.139 74.4624 101.044 74.889 100.807 75.1733C100.854 74.7468 100.665 74.3676 100.475 74.0833C100.286 73.7989 100.001 73.6093 99.7643 73.5146C99.4799 73.4198 99.1956 73.4198 98.8638 73.4672C98.5321 73.562 98.2003 73.7041 97.916 74.0833C97.916 73.6567 98.1529 73.1828 98.5795 72.8984C98.4373 72.9458 98.2477 73.0406 98.1055 73.1828C97.679 73.5146 97.442 73.9411 97.3946 74.4624C97.3472 74.7468 97.3946 74.9838 97.442 75.2207C97.3946 74.9364 97.4894 74.652 97.6316 74.415Z" fill="white"/>
<path d="M65.0725 33.2702C65.4991 38.5782 67.537 43.365 70.5228 45.6873C73.7929 48.1991 77.2526 50.9953 79.9067 54.5972C82.3237 57.82 82.0394 60.0475 81.8498 61.5167C81.755 62.2276 81.7076 62.8437 81.992 63.2702C82.3237 63.7915 83.082 64.0285 84.0773 64.3129C85.6413 64.7868 87.5844 65.3081 88.5797 67.1565C89.7645 69.3366 90.7598 71.3271 91.6602 73.2228L91.755 73.5072C85.7361 101.848 82.0868 125.403 80.7124 145.545C80.7124 146.019 80.9493 146.351 81.3759 146.446C81.8024 146.54 82.1816 146.256 82.3237 145.877L98.6271 97.1091L113.272 147.299C113.414 147.725 113.793 147.962 114.172 147.915C114.599 147.867 114.883 147.488 114.883 147.014C114.267 126.635 111.518 102.607 106.494 73.602L106.779 72.7015C112.703 61.1375 120.144 52.1328 128.959 45.9716C133.793 42.4171 136.305 32.8436 134.314 25.4977C132.75 19.7157 128.817 16.2086 123.224 15.6398C123.129 15.6398 122.987 15.6398 122.893 15.6398C118.485 15.6398 114.741 19.4313 112.94 25.2607C112.229 25.1659 111.565 24.8342 111.044 24.1706L110.949 24.0759H110.855C110.807 24.0759 110.76 24.0759 110.76 24.0759C110.286 24.0759 109.954 24.692 109.765 25.1659C109.528 25.7346 109.338 26.4929 109.148 27.346C108.911 28.6256 108.627 30.8057 109.528 30.9953H109.622L109.717 30.9479C110.475 30.6162 111.186 30.5214 111.945 30.7109C111.66 35.8768 112.798 39.0996 116.352 43.7441C117.49 45.2133 117.584 47.346 116.542 49.0996C113.698 54.0759 108.911 59.7631 102.656 65.4977C101.092 66.019 99.6697 66.5404 98.2953 67.0617C97.537 66.7773 96.7787 66.4456 95.973 66.1612C89.9541 60.1423 85.3569 54.2655 82.7029 49.1944C81.755 47.3934 81.992 45.2607 83.2716 43.6967C87.4896 38.6256 88.7692 34.9763 88.4375 29.2417C88.1057 25.6398 87.2053 22.7488 85.7835 20.4266C83.7455 16.9195 83.4138 14.5498 83.1294 12.5119C82.9398 11.0427 82.7029 9.66826 81.992 8.10428C78.8166 1.37441 74.409 0.236967 73.9351 0.0947872C73.7455 3.60171e-07 73.5086 0 73.319 0C72.6081 0 72.0868 0.473935 71.8972 0.995263C71.5654 1.75356 71.8024 2.74882 72.7977 3.22275C72.8451 3.22275 77.537 5.63982 77.1579 9.66826C77.0157 11.1375 76.447 12.654 75.4043 14.1706C74.646 15.3555 73.556 16.3033 72.3711 16.9195C71.1389 17.5356 70.0488 18.3413 69.101 19.3839C66.1152 22.5593 64.646 27.6304 65.0725 33.2702ZM77.9635 9.76305C77.9635 9.71565 77.9635 9.66826 77.9635 9.66826C78.0109 9.66826 78.0109 9.71565 77.9635 9.76305C77.9635 11.0427 77.6792 12.3697 77.0631 13.6019C76.4943 14.8341 75.5939 15.9716 74.4564 16.8247C77.1105 15.545 78.864 12.7014 78.8166 9.76305C78.8166 6.82465 77.0631 3.98105 74.409 2.74882C75.5465 3.6019 76.447 4.73934 77.0157 5.92418C77.1105 6.11375 77.2052 6.30333 77.2526 6.44551C75.9256 3.93366 73.2242 2.55925 73.082 2.46446C72.5133 2.1801 72.4659 1.70616 72.6081 1.32702C72.7503 0.995263 73.082 0.710902 73.6033 0.900476H73.6507C73.6981 0.900476 78.0583 1.89574 81.1389 8.43603C81.8498 9.90523 82.0394 11.1848 82.2289 12.6067C82.5133 14.7394 82.8925 17.1564 85.0252 20.9479C86.3996 23.1754 87.2526 25.9242 87.5844 29.3839C87.9162 34.8342 86.6365 38.3413 82.6081 43.2228C81.1389 45.0238 80.8545 47.5356 81.9446 49.6209C84.646 54.7868 89.2906 60.7584 95.4043 66.8721L95.4517 66.9195L95.5465 66.9669C99.1484 68.2939 102.134 69.6683 104.646 71.1849C104.93 71.3745 105.12 71.6589 105.215 71.9906C110.428 101.706 113.272 126.209 113.888 146.92L92.3237 72.9859V72.9385C91.4233 70.9953 90.428 69.0048 89.1958 66.7773C88.0583 64.6446 85.8308 64.0285 84.2195 63.5546C83.5086 63.365 82.7503 63.128 82.6081 62.8911C82.4659 62.6541 82.5133 62.2276 82.6081 61.6588C82.7977 60.1423 83.082 57.583 80.4754 54.1233C77.7266 50.4266 74.2669 47.583 70.9019 45.0238C68.1531 42.8437 66.1626 38.2939 65.7834 33.1754C65.3569 27.7725 66.7313 22.9384 69.5749 19.9052C70.428 18.9574 71.4706 18.1991 72.6081 17.6304C73.9351 16.9668 75.1199 15.9242 75.973 14.6446C77.2052 13.0332 77.8688 11.3744 77.9635 9.76305ZM103.082 66.3034L103.129 66.256C109.48 60.4266 114.362 54.6446 117.253 49.5735C118.438 47.4882 118.343 45.0238 116.968 43.2702C114.646 40.237 113.414 37.9147 112.94 35.2133C112.987 35.3555 112.987 35.4503 113.035 35.5925C113.698 38.1517 115.025 40.5688 116.921 42.4171C115.215 40.3318 114.172 37.9147 113.698 35.4503C113.177 32.9858 113.272 30.474 113.698 28.0095C113.935 26.7773 114.267 25.5924 114.693 24.4076C115.12 23.2228 115.641 22.0853 116.352 21.0427C117.016 20 117.869 19.0048 118.911 18.2465C119.954 17.4882 121.139 16.9195 122.466 16.6825C121.139 16.7299 119.859 17.2038 118.722 17.9147C118.532 18.0569 118.343 18.1517 118.153 18.2939C119.67 17.0616 121.376 16.3981 123.177 16.4929C128.39 17.0616 132.087 20.3318 133.509 25.7346C135.404 32.7962 133.035 41.9432 128.438 45.3081C119.622 51.5167 112.134 60.5214 106.163 72.038C106.163 71.9906 106.163 71.8958 106.115 71.8484C106.115 71.801 106.115 71.801 106.115 71.801L106.21 71.8484C108.248 67.8674 110.57 64.0285 113.129 60.3318C113.129 60.3318 114.03 59.0048 115.025 57.6778C115.499 57.0143 115.973 56.3508 116.352 55.8768C116.542 55.6399 116.684 55.4029 116.779 55.2607C116.874 55.1185 116.921 55.0238 116.921 55.0238C116.921 55.0238 116.637 55.3081 116.257 55.7347C115.878 56.1612 115.404 56.7773 114.883 57.3934C113.935 58.6257 112.987 59.8579 112.987 59.8579C110.381 63.4124 107.964 67.1565 105.831 71.0427C105.641 70.8058 105.452 70.5688 105.167 70.4266C104.314 69.9527 103.461 69.4314 102.513 68.9574C102.798 68.7679 103.129 68.6257 103.414 68.4361C103.414 68.4361 103.556 68.3413 103.746 68.2939C103.888 68.1991 104.077 68.1517 104.03 68.1044C104.03 68.057 103.84 68.057 103.698 68.057C103.509 68.057 103.366 68.1044 103.366 68.1044C102.892 68.1991 102.371 68.3413 101.897 68.5309L101.992 68.6731C101.85 68.5783 101.708 68.5309 101.518 68.4361C102.039 68.2465 102.513 68.057 102.987 67.82C102.987 67.82 103.272 67.6778 103.509 67.583C103.793 67.4408 104.03 67.2987 104.03 67.2513C104.03 67.2039 103.746 67.2987 103.461 67.3461C103.177 67.4408 102.94 67.4882 102.94 67.4882C102.182 67.7252 101.471 67.9148 100.712 68.057C100.665 68.057 100.618 68.0096 100.57 68.0096C100.902 67.8674 101.234 67.7252 101.565 67.583L102.798 67.0617L103.414 66.7773L103.509 66.7299L103.556 66.6826L103.603 66.6352L103.746 66.5404L103.983 66.3034C104.646 65.6873 105.31 65.1186 105.926 64.4551C106.542 63.7915 107.158 63.128 107.727 62.4645C110.144 59.8105 112.419 57.1091 114.599 54.2655C114.599 54.2655 114.978 53.7915 115.499 53.0332C116.02 52.2749 116.779 51.3271 117.395 50.2844C117.679 49.7631 117.964 49.1944 118.153 48.673C118.343 48.1517 118.438 47.583 118.485 47.1565C118.532 46.6825 118.485 46.3034 118.485 46.0664C118.485 45.9242 118.438 45.8294 118.438 45.782C118.438 45.7347 118.39 45.6873 118.39 45.6873C118.39 45.6873 118.39 45.8294 118.438 46.1138C118.438 46.3982 118.438 46.7773 118.39 47.2512C118.343 47.7252 118.201 48.2465 117.964 48.8152C117.727 49.3839 117.442 49.9053 117.111 50.4266C116.447 51.4693 115.641 52.4645 115.073 53.2228C114.504 53.9811 114.077 54.455 114.077 54.455C111.897 57.2039 109.622 59.8105 107.205 62.3224C106.589 62.9385 106.02 63.602 105.404 64.2181C104.788 64.8342 104.125 65.4029 103.461 65.9716L103.224 66.1612L103.129 66.256L103.035 66.3034L102.419 66.5404L101.186 67.0143C100.665 67.2039 100.144 67.4408 99.6223 67.6304C99.5275 67.583 99.4328 67.5356 99.338 67.4882C100.475 67.0617 101.66 66.6352 102.94 66.2086L103.082 66.3034ZM109.717 27.4882C110.001 25.9716 110.381 25.1185 110.618 24.8342C110.665 24.9289 110.76 24.9763 110.807 25.0237C110.76 25.4029 110.76 25.8294 110.76 26.2086C110.76 26.2086 110.76 26.3507 110.807 26.4929C110.855 26.6351 110.902 26.7773 110.949 26.7773C110.997 26.7773 111.044 26.6351 111.044 26.4929C111.092 26.3507 111.092 26.2086 111.092 26.2086C111.139 25.9242 111.234 25.6398 111.329 25.4029C111.376 25.4503 111.423 25.4503 111.471 25.4977C111.471 25.6398 111.471 25.782 111.471 25.9716C111.471 25.9716 111.471 26.0664 111.518 26.1612C111.518 26.256 111.565 26.3507 111.613 26.3507C111.66 26.3507 111.708 26.256 111.755 26.2086C111.802 26.1138 111.85 26.0664 111.85 26.0664C111.897 25.9716 111.945 25.8768 111.992 25.7346C112.039 25.7346 112.087 25.782 112.134 25.782C112.134 25.9242 112.087 26.0664 112.087 26.1612C112.087 26.1612 112.087 26.256 112.087 26.3507C112.087 26.4455 112.134 26.5403 112.182 26.5403C112.229 26.5403 112.276 26.4929 112.324 26.3981C112.371 26.3507 112.419 26.256 112.419 26.256C112.513 26.1138 112.561 26.019 112.656 25.8768H112.703C112.419 26.9195 112.182 28.0569 112.039 29.1943C112.039 29.3365 112.039 29.4787 111.992 29.6209L111.897 29.2891C111.897 29.2891 111.755 28.9574 111.708 28.9574C111.613 28.9574 111.565 29.2891 111.565 29.2891L111.518 29.6209C111.471 29.4787 111.471 29.3365 111.423 29.1943C111.423 29.1943 111.423 29.0996 111.376 28.9574C111.329 28.8626 111.329 28.7204 111.281 28.7204C111.234 28.7204 111.186 28.8152 111.139 28.91C111.092 29.0048 111.092 29.147 111.092 29.147C111.044 29.3365 111.044 29.4787 110.997 29.6683C110.949 29.4313 110.902 29.1944 110.855 29.0048C110.855 29.0048 110.855 28.8626 110.807 28.7204C110.807 28.5782 110.76 28.4361 110.712 28.4361C110.665 28.4361 110.618 28.5782 110.57 28.7204C110.523 28.8626 110.475 29.0048 110.475 29.0048C110.428 29.1944 110.428 29.3365 110.428 29.5261C110.381 29.0522 110.333 28.5782 110.381 28.1043C110.381 28.1043 110.381 27.8199 110.381 27.583C110.381 27.2986 110.428 27.0616 110.381 27.0616C110.333 27.0616 110.238 27.2986 110.191 27.5356C110.096 27.7725 110.049 28.0569 110.049 28.0569C109.907 28.7678 109.859 29.4787 109.859 30.1896C109.765 30.237 109.67 30.237 109.575 30.2844C109.48 30 109.433 29.0522 109.717 27.4882ZM92.3237 75.6399C91.8972 78.5309 91.4233 81.4219 90.8545 84.3129C90.8545 84.3129 90.665 85.3556 90.428 86.3982C90.3332 86.9195 90.2384 87.4409 90.1436 87.82C90.0489 88.1992 90.0015 88.4835 90.0489 88.4835C90.0963 88.4835 90.1436 88.2466 90.2384 87.8674C90.3332 87.4883 90.4754 87.0143 90.6176 86.5404C90.9019 85.5451 91.1389 84.5499 91.1389 84.5499C91.755 82.038 92.2764 79.5262 92.7029 77.0143L92.8925 77.583C92.7977 78.7205 92.6555 79.8579 92.4659 80.9954C92.4659 80.9954 92.4185 81.4693 92.3237 81.9906C92.2764 82.4646 92.1816 82.9859 92.229 82.9859C92.2764 82.9859 92.4185 82.5593 92.5133 82.0854C92.6555 81.6115 92.7503 81.1849 92.7503 81.1849C92.9399 80.4266 93.082 79.7157 93.2242 78.9574L93.6982 80.5214C93.6982 80.711 93.6982 80.8532 93.7455 80.8532C93.7455 80.8532 93.7455 80.8532 93.7929 80.8058L94.2195 82.3224C94.1247 82.4172 94.0299 82.5593 93.9351 82.6541C93.3664 83.365 92.8925 84.1233 92.5607 84.9764C92.3711 85.4029 92.229 85.8295 92.1342 86.256L91.8498 87.4883C91.0915 90.8058 90.3332 94.1233 89.5749 97.4409C88.1057 104.076 86.7313 110.758 85.5465 117.488C85.5465 117.488 85.3095 118.721 85.0252 120.521C84.6934 122.37 84.3143 124.787 83.9351 127.251C83.7455 128.484 83.556 129.716 83.4138 130.853C83.2716 131.991 83.1294 133.081 82.9872 133.981C82.8925 134.882 82.7977 135.687 82.7503 136.209C82.7029 136.493 82.7029 136.683 82.7029 136.825C82.7029 136.967 82.7029 137.062 82.7029 137.062C82.7029 137.062 82.7503 136.967 82.7503 136.872C82.7977 136.73 82.7977 136.54 82.8451 136.303C82.9398 135.782 83.0346 135.071 83.1768 134.171C83.319 133.318 83.4612 132.275 83.6508 131.185C83.8403 130.095 84.0299 128.91 84.2195 127.773C85.0252 123.128 85.9256 118.484 85.9256 118.484C87.2526 111.659 88.7218 104.834 90.2858 98.057C91.0915 94.6447 91.8972 91.2797 92.7029 87.9148L93.0346 86.6352C93.1294 86.2086 93.2716 85.8295 93.4138 85.4503C93.6034 85.0238 93.7929 84.6447 94.0299 84.2181C92.0868 91.9906 90.2858 99.7632 88.7218 107.63C88.7218 107.63 88.1057 110.711 87.537 113.839C87.2526 115.403 86.9683 116.967 86.7787 118.104C86.6839 118.673 86.5891 119.194 86.5417 119.526C86.4944 119.716 86.4944 119.811 86.4944 119.905C86.4944 120 86.4944 120.048 86.4944 120.048C86.4944 120.048 86.4944 120 86.5417 119.905C86.5417 119.811 86.5891 119.716 86.6365 119.526C86.6839 119.194 86.7787 118.721 86.9209 118.199C87.1579 117.109 87.4422 115.593 87.774 114.123C88.3901 111.185 89.0062 108.199 89.0062 108.199C90.7598 100.048 92.7029 91.9432 94.8356 83.8864L95.0726 84.6921L92.4659 95.5451C92.4659 95.5451 90.8072 102.417 90.9019 102.465C90.9967 102.465 92.7029 95.9717 92.7029 95.9717L95.3569 85.8295L95.5939 86.73L94.7882 90.3319C94.7882 90.3319 93.9351 94.076 94.0299 94.1233C94.1247 94.1233 95.0726 90.6162 95.0726 90.6162L95.8783 87.6778L98.2479 95.7347L81.518 145.498C82.8925 125.83 86.3996 102.796 92.1816 75.2607L92.3237 75.6399Z" fill="black"/>
<path d="M71.2336 22.5553C69.6696 24.8775 68.7217 27.9581 68.627 31.2756C68.39 38.1951 71.8497 43.9297 76.3047 44.0719C79.9066 44.1667 83.082 40.6595 84.3142 35.6358C83.935 37.4842 83.3663 39.3325 82.4658 41.1335C84.7881 37.6264 85.8308 33.4557 85.499 29.4273C85.3094 27.3894 84.8829 25.3989 83.8876 23.5505C83.4137 22.65 82.7976 21.7496 82.0867 21.0387C81.3758 20.2804 80.4753 19.7117 79.4801 19.3325C81.3284 20.3278 82.5132 22.0339 83.2715 23.8349C83.4137 24.1666 83.5085 24.451 83.6507 24.7828C83.4137 24.1192 83.082 23.5505 82.7502 22.9818C81.281 20.5173 79.2905 19.0955 77.063 19.0481C77.0156 19.0481 76.9208 19.0481 76.8734 19.0481C74.8355 19.0008 72.7976 20.2804 71.2336 22.5553ZM77.1578 19.8538C79.0535 19.9012 80.8071 21.1808 82.1341 23.3609C83.4611 25.6358 84.172 28.6216 84.0298 31.797C83.8403 38.2425 80.3805 43.4084 76.3995 43.2662C72.371 43.124 69.2905 37.7685 69.5274 31.323C69.6222 28.1477 70.5227 25.2093 71.9919 23.0292C73.3663 20.9439 75.2146 19.8064 77.1578 19.8538Z" fill="black"/>
<path d="M98.9587 77.2445C99.6696 77.3393 100.333 77.1497 100.902 76.7232C101.471 76.2967 101.802 75.6805 101.897 74.9696C101.992 74.2587 101.802 73.5952 101.376 73.0265C100.949 72.4578 100.333 72.126 99.6222 72.0312C99.5274 72.0312 99.4327 72.0312 99.2905 72.0312C98.7218 72.0312 98.153 72.2208 97.6791 72.6C97.1104 73.0265 96.7786 73.6426 96.6838 74.3535C96.589 75.0644 96.7786 75.7279 97.2052 76.2967C97.6791 76.818 98.2952 77.1971 98.9587 77.2445ZM97.3473 74.4483C97.3947 73.927 97.6791 73.453 98.0582 73.1687C98.2004 73.0739 98.3426 72.9791 98.5322 72.8843C98.153 73.1687 97.8687 73.5952 97.8687 74.0692C98.153 73.7374 98.4848 73.5478 98.8165 73.4531C99.1483 73.3583 99.48 73.4057 99.717 73.5004C100.001 73.5952 100.238 73.7848 100.428 74.0692C100.617 74.3535 100.807 74.7327 100.76 75.1592C101.044 74.8749 101.139 74.4483 101.044 74.0218C101.139 74.3061 101.186 74.6379 101.139 74.9222C101.091 75.4436 100.807 75.9175 100.428 76.2019C100.096 76.4862 99.6696 76.6284 99.2431 76.6284C99.5748 76.581 99.8592 76.3914 100.049 76.1071C99.717 76.1545 99.3853 76.0597 99.1483 76.0123C98.9113 75.9175 98.6744 75.8227 98.5322 75.6805C98.3426 75.5384 98.2004 75.3962 98.0108 75.2066C97.8213 75.017 97.6791 74.7801 97.5843 74.4009C97.4421 74.6379 97.3947 74.9222 97.3947 75.2066C97.3473 74.9696 97.3473 74.6853 97.3473 74.4483Z" fill="black"/>
<path d="M100.712 79.8557C100.143 79.6661 99.5746 79.5713 99.1481 79.524C98.7215 79.4766 98.3424 79.4766 98.058 79.4766C97.4893 79.524 97.205 79.5713 97.205 79.7135C97.205 79.8557 97.4893 79.9979 98.0106 80.1875C98.295 80.2823 98.6268 80.377 99.0059 80.4718C99.3851 80.5666 99.7642 80.6614 100.238 80.8036L100.854 83.268C100.854 83.268 101.233 84.7372 101.281 84.7372C101.376 84.7372 101.186 83.268 101.186 83.268L100.902 81.0405C101.139 81.1353 101.328 81.2301 101.518 81.3723L103.319 90.4244C103.319 90.4244 104.219 95.069 104.314 95.0216C104.409 95.0216 103.698 90.5666 103.698 90.5666L102.276 81.7988C102.323 81.8462 102.371 81.8936 102.466 81.941C102.56 81.9884 102.608 82.0832 102.703 82.1306L105.499 96.5382C105.499 96.5382 106.873 103.6 106.968 103.6C107.063 103.6 105.925 96.8226 105.925 96.8226L103.556 82.9363C103.745 83.1259 103.887 83.3154 104.03 83.505C105.688 91.941 107.205 100.424 108.437 108.908C108.437 108.908 108.911 112.036 109.338 115.164C109.575 116.728 109.764 118.292 109.954 119.477C110.049 120.045 110.096 120.567 110.143 120.898C110.191 121.088 110.191 121.183 110.191 121.278C110.191 121.372 110.238 121.42 110.238 121.42C110.238 121.42 110.238 121.372 110.238 121.278C110.238 121.183 110.238 121.041 110.191 120.898C110.143 120.567 110.096 120.093 110.049 119.524C109.954 118.387 109.764 116.917 109.575 115.401C109.243 112.415 108.816 109.429 108.816 109.429C107.726 101.278 106.447 93.1733 104.977 85.069C105.072 85.306 105.214 85.5429 105.309 85.8273C105.451 86.2064 105.546 86.5856 105.641 86.9647L105.878 88.1969C106.494 91.5619 107.11 94.8794 107.679 98.2444C108.816 104.974 109.859 111.657 110.759 118.434C110.759 118.434 110.902 119.666 111.139 121.515C111.376 123.363 111.66 125.827 111.944 128.292C112.086 129.524 112.229 130.756 112.323 131.894C112.418 133.031 112.56 134.121 112.655 135.069C112.75 136.017 112.797 136.775 112.892 137.297C112.94 137.581 112.94 137.77 112.94 137.913C112.94 138.055 112.987 138.15 112.987 138.15C112.987 138.15 112.987 138.055 112.987 137.913C112.987 137.77 112.987 137.581 112.987 137.297C112.94 136.775 112.94 136.064 112.845 135.164C112.797 134.263 112.703 133.268 112.608 132.131C112.513 131.041 112.418 129.856 112.323 128.671C111.897 123.979 111.328 119.24 111.328 119.24C110.523 112.32 109.527 105.448 108.437 98.5287C107.916 95.069 107.347 91.6567 106.731 88.2443C106.494 84.7846 104.314 81.0879 100.712 79.8557Z" fill="black"/>
<path d="M66.7787 30.8026C66.8261 28.812 67.1578 26.8689 67.8213 24.9258C68.4848 23.03 69.4327 21.1817 70.8545 19.5703C69.2431 20.9921 68.0583 22.7457 67.2526 24.6888C66.4469 26.6319 66.0204 28.6698 65.973 30.7552C65.8782 34.9258 67.2526 39.0016 69.5749 42.6035C67.7265 38.7646 66.7313 34.7836 66.7787 30.8026Z" fill="black"/>
<path d="M69.717 21.9844C67.9634 24.6858 67.063 27.8138 66.9682 30.9417C66.8734 34.0697 67.5843 37.2924 69.1957 40.1361C67.9634 37.1503 67.4895 34.0223 67.5369 30.9891C67.6317 27.9559 68.2952 24.9228 69.717 21.9844Z" fill="black"/>
<path d="M85.6414 29.5345C85.8784 32.3307 85.6414 35.1743 84.7409 38.0179C85.9732 35.3165 86.4471 32.3781 86.2101 29.4871C85.9732 26.6435 84.9779 23.7999 83.2717 21.3828C84.5987 24.0368 85.357 26.7857 85.6414 29.5345Z" fill="black"/>
<path d="M82.6554 15.5445C82.2289 14.028 81.8497 12.464 81.6602 10.7578C81.3284 14.1227 82.2763 17.4403 84.3616 20.1417C83.6507 18.5777 83.082 17.0611 82.6554 15.5445Z" fill="black"/>
<path d="M79.6698 11.7034C80.0016 10.2816 79.7646 8.67025 79.0063 7.39062C79.4329 8.81243 79.4329 10.2342 79.1011 11.5612C78.7694 12.8883 78.1533 14.1205 77.1106 15.2579C78.4376 14.4522 79.3381 13.1252 79.6698 11.7034Z" fill="black"/>
<path d="M80.9968 48.3399C81.139 48.8613 81.3285 49.3826 81.5655 49.9039C81.8025 50.3779 82.0394 50.8518 82.2764 51.3731C83.2717 53.2689 84.3617 55.1172 85.594 56.8708C86.8262 58.6243 88.2006 60.2831 89.6224 61.8945C91.0916 63.5058 92.703 64.975 94.4091 66.3968C92.7978 64.8328 91.3286 63.2215 89.9542 61.6101C88.5797 59.9513 87.3001 58.2926 86.0679 56.5864C84.8357 54.8802 83.6982 53.0793 82.6556 51.2309C82.1342 50.2831 81.5655 49.3826 81.2338 48.3399C81.0916 47.8186 80.9968 47.2973 80.9968 46.7286C80.9968 46.2072 81.139 45.6385 81.3285 45.1172C81.0442 45.5911 80.902 46.1598 80.8546 46.6812C80.8546 47.2499 80.902 47.8186 80.9968 48.3399Z" fill="black"/>
<path d="M81.0913 54.4531C81.9444 55.638 82.4657 56.8702 82.7975 58.1024C83.1292 59.382 83.2714 60.7091 83.1766 62.1783C83.7927 60.8512 83.9823 59.3346 83.6032 57.9128C83.2714 56.5384 82.3709 55.2588 81.0913 54.4531Z" fill="black"/>
<path d="M100.286 70.0067C100.95 70.3858 101.66 70.7176 102.324 71.0967L103.319 71.6654L103.793 71.9498C103.935 72.0446 104.172 72.1868 104.125 72.1394L104.362 73.3242L104.694 74.6986C104.883 75.5991 105.12 76.547 105.357 77.4474C105.831 79.2958 106.352 81.1441 106.874 83.0399C106.637 81.0967 106.352 79.201 106.021 77.3053C105.878 76.3574 105.689 75.4569 105.499 74.509L105.215 73.1346L104.883 71.5707L104.22 71.1915L103.698 70.9071C103.367 70.7176 103.035 70.528 102.656 70.3858C101.945 70.0541 101.234 69.7223 100.523 69.4379C99.0538 68.8218 97.5846 68.3479 96.0206 67.9688C97.5372 68.6323 98.959 69.2958 100.286 70.0067Z" fill="black"/>
<path d="M25.9922 31.5625C25.9922 27.8776 25.1393 24.9154 23.4336 22.6758C21.7279 20.4362 19.4883 19.3164 16.7148 19.3164C14.0586 19.3164 11.9362 20.3125 10.3477 22.3047C8.77214 24.2969 7.98438 26.9922 7.98438 30.3906C7.98438 34.1016 8.84375 37.0833 10.5625 39.3359C12.2943 41.5885 14.5404 42.7148 17.3008 42.7148C19.9701 42.7148 22.0859 41.7188 23.6484 39.7266C25.2109 37.7344 25.9922 35.013 25.9922 31.5625ZM17.0273 16.4062C19.0977 16.4062 20.9466 16.6927 22.5742 17.2656C24.2018 17.8255 25.6992 18.6979 27.0664 19.8828C28.6549 21.263 29.8789 22.9102 30.7383 24.8242C31.5977 26.7253 32.0273 28.7435 32.0273 30.8789C32.0273 35.1237 30.5885 38.6589 27.7109 41.4844C24.8333 44.3099 21.2331 45.7227 16.9102 45.7227C14.6576 45.7227 12.6198 45.3581 10.7969 44.6289C8.97396 43.8867 7.35938 42.7865 5.95312 41.3281C4.65104 39.9609 3.65495 38.4049 2.96484 36.6602C2.28776 34.9023 1.94922 33.0404 1.94922 31.0742C1.94922 28.8997 2.3724 26.8815 3.21875 25.0195C4.07812 23.1445 5.32161 21.5104 6.94922 20.1172C8.30339 18.9453 9.86589 18.0339 11.6367 17.3828C13.4076 16.7318 15.2044 16.4062 17.0273 16.4062ZM35.5039 17.1289C36.6107 17.194 37.6523 17.2461 38.6289 17.2852C39.6185 17.3112 40.4974 17.3242 41.2656 17.3242C42.0599 17.3242 42.9453 17.3112 43.9219 17.2852C44.9115 17.2461 46.0508 17.194 47.3398 17.1289V18.8867C47.2617 18.8867 47.151 18.8802 47.0078 18.8672C46.8646 18.8542 46.7669 18.8477 46.7148 18.8477C45.6211 18.8477 44.8789 19.1732 44.4883 19.8242C44.0977 20.4753 43.9023 21.9466 43.9023 24.2383C43.9023 24.5768 43.9089 25.1888 43.9219 26.0742C43.9349 26.9596 43.9414 27.6823 43.9414 28.2422L43.9805 41.9531L44.0977 41.9727C45.7773 42.0768 47.0469 42.1289 47.9062 42.1289C51.1745 42.1289 53.3164 41.7904 54.332 41.1133C55.3477 40.4362 56.181 39.1471 56.832 37.2461L58.6289 37.793C58.2253 38.9779 57.8607 40.1693 57.5352 41.3672C57.2227 42.5651 56.9492 43.776 56.7148 45C54.4102 44.9219 52.2682 44.8633 50.2891 44.8242C48.3099 44.7852 46.5 44.7656 44.8594 44.7656C43.2318 44.7656 41.5911 44.7852 39.9375 44.8242C38.2969 44.8633 36.6628 44.9219 35.0352 45V43.2812H35.582C36.2852 43.2812 36.8255 43.2096 37.2031 43.0664C37.5807 42.9232 37.8542 42.6888 38.0234 42.3633C38.388 41.6471 38.5833 38.9714 38.6094 34.3359C38.6224 33.737 38.6289 33.2812 38.6289 32.9688L38.668 28.7109C38.668 28.138 38.6745 27.3893 38.6875 26.4648C38.7005 25.5273 38.707 24.8763 38.707 24.5117C38.707 22.168 38.5117 20.638 38.1211 19.9219C37.7435 19.2057 37.0208 18.8477 35.9531 18.8477H35.5039V17.1289ZM116.363 41.875C117.171 42.0573 117.965 42.194 118.746 42.2852C119.54 42.3633 120.348 42.4023 121.168 42.4023C124.54 42.4023 127.138 41.4714 128.961 39.6094C130.784 37.7474 131.695 35.0911 131.695 31.6406C131.695 27.8516 130.719 24.9154 128.766 22.832C126.812 20.7357 124.078 19.6875 120.562 19.6875C120.055 19.6875 119.475 19.7135 118.824 19.7656C118.186 19.8047 117.418 19.8828 116.52 20C116.467 23.1771 116.428 26.1914 116.402 29.043C116.376 31.8815 116.363 34.4661 116.363 36.7969V41.875ZM107.535 45V43.2422C107.626 43.2552 107.724 43.2682 107.828 43.2812C107.932 43.2812 108.089 43.2812 108.297 43.2812C109.378 43.2812 110.107 42.9232 110.484 42.207C110.862 41.4779 111.051 39.6224 111.051 36.6406V35.2344V33.1641L111.09 28.5156C111.09 28.2943 111.096 27.9753 111.109 27.5586C111.148 25.6445 111.168 24.3229 111.168 23.5938C111.168 21.6536 110.979 20.3776 110.602 19.7656C110.237 19.1536 109.547 18.8477 108.531 18.8477C108.336 18.8477 108.186 18.8542 108.082 18.8672C107.978 18.8672 107.887 18.8672 107.809 18.8672V17.1289C108.928 17.194 109.905 17.2461 110.738 17.2852C111.572 17.3112 112.327 17.3242 113.004 17.3242C114.215 17.3242 115.764 17.2721 117.652 17.168C119.553 17.0508 120.842 16.9922 121.52 16.9922C126.546 16.9922 130.484 18.2422 133.336 20.7422C136.188 23.2292 137.613 26.6471 137.613 30.9961C137.613 35.2148 136.109 38.6263 133.102 41.2305C130.094 43.8216 126.103 45.1172 121.129 45.1172C120.725 45.1172 119.534 45.0651 117.555 44.9609C115.576 44.8568 113.792 44.8047 112.203 44.8047C111.826 44.8047 110.549 44.8568 108.375 44.9609L107.535 45ZM152.535 17.1289V18.8867C152.457 18.8867 152.346 18.8802 152.203 18.8672C152.06 18.8542 151.956 18.8477 151.891 18.8477C150.784 18.8477 150.035 19.1732 149.645 19.8242C149.254 20.4622 149.059 22.0964 149.059 24.7266V26.2891V29.1992C149.059 31.8294 149.104 33.6979 149.195 34.8047C149.286 35.8984 149.443 36.7643 149.664 37.4023C150.159 38.9518 151.031 40.1432 152.281 40.9766C153.531 41.7969 155.068 42.207 156.891 42.207C158.388 42.207 159.664 41.9596 160.719 41.4648C161.773 40.957 162.633 40.1888 163.297 39.1602C163.74 38.4701 164.052 37.5716 164.234 36.4648C164.43 35.3451 164.527 33.6849 164.527 31.4844C164.527 31.0677 164.521 30.3776 164.508 29.4141C164.495 28.4375 164.488 27.6758 164.488 27.1289V25.0781C164.488 22.3307 164.293 20.6055 163.902 19.9023C163.512 19.1992 162.763 18.8477 161.656 18.8477C161.487 18.8477 161.357 18.8542 161.266 18.8672C161.174 18.8672 161.09 18.8672 161.012 18.8672V17.1289C162.223 17.194 163.225 17.2461 164.02 17.2852C164.827 17.3112 165.517 17.3242 166.09 17.3242C166.624 17.3242 167.268 17.3112 168.023 17.2852C168.792 17.2461 169.788 17.194 171.012 17.1289V18.8867H170.699C169.918 18.8867 169.339 18.9779 168.961 19.1602C168.583 19.3294 168.31 19.6354 168.141 20.0781C167.893 20.7292 167.737 23.5612 167.672 28.5742C167.672 29.2904 167.665 29.8438 167.652 30.2344C167.652 30.4818 167.652 30.8398 167.652 31.3086C167.626 35.7617 167.145 38.8216 166.207 40.4883C165.27 42.1549 163.889 43.444 162.066 44.3555C160.243 45.2669 158.121 45.7227 155.699 45.7227C153.473 45.7227 151.493 45.3581 149.762 44.6289C148.043 43.8867 146.689 42.8385 145.699 41.4844C144.957 40.4688 144.43 39.2969 144.117 37.9688C143.805 36.6406 143.648 34.6615 143.648 32.0312C143.648 31.3281 143.668 30.0781 143.707 28.2812C143.746 26.4844 143.766 25.0456 143.766 23.9648C143.766 21.6862 143.577 20.2734 143.199 19.7266C142.835 19.1667 142.105 18.8867 141.012 18.8867H140.543V17.1289C142.014 17.194 143.206 17.2461 144.117 17.2852C145.042 17.3112 145.836 17.3242 146.5 17.3242C147.112 17.3242 147.88 17.3112 148.805 17.2852C149.729 17.2461 150.973 17.194 152.535 17.1289ZM179.176 43.2422H179.898C180.771 43.2422 181.409 43.151 181.812 42.9688C182.216 42.7734 182.516 42.4349 182.711 41.9531C182.841 41.5885 182.932 40.7031 182.984 39.2969C183.036 37.8906 183.062 35.2865 183.062 31.4844V20.3125H179.703C177.659 20.3125 176.259 20.599 175.504 21.1719C174.749 21.7448 174.228 22.8451 173.941 24.4727L172.105 24.082C172.405 22.793 172.633 21.5625 172.789 20.3906C172.958 19.2057 173.062 18.0404 173.102 16.8945C173.596 17.0638 174.293 17.1875 175.191 17.2656C176.09 17.3307 177.607 17.3633 179.742 17.3633H184.059H186.5H191.461C193.857 17.3633 195.523 17.3307 196.461 17.2656C197.411 17.1875 198.108 17.0573 198.551 16.875V17.4805C198.551 18.4961 198.59 19.5508 198.668 20.6445C198.759 21.7253 198.889 22.8711 199.059 24.082L197.301 24.3555C197.079 22.7669 196.63 21.6992 195.953 21.1523C195.276 20.5924 193.941 20.3125 191.949 20.3125H191.461H188.512C188.473 22.3958 188.447 24.4466 188.434 26.4648C188.421 28.4831 188.414 30.8333 188.414 33.5156V37.168C188.414 38.8867 188.453 40.0911 188.531 40.7812C188.609 41.4714 188.733 41.9857 188.902 42.3242C189.098 42.6497 189.404 42.8841 189.82 43.0273C190.237 43.1706 190.823 43.2422 191.578 43.2422H192.262V45C191.936 44.987 191.454 44.9674 190.816 44.9414C188.264 44.8242 186.52 44.7656 185.582 44.7656C184.905 44.7656 184.033 44.7852 182.965 44.8242C181.91 44.8633 180.647 44.9219 179.176 45V43.2422ZM226.52 18.0859C226.52 18.2161 226.513 18.4245 226.5 18.7109C226.487 18.9844 226.48 19.1862 226.48 19.3164C226.48 20.1888 226.52 21.1133 226.598 22.0898C226.676 23.0664 226.799 24.1406 226.969 25.3125L225.035 25.6445C224.827 23.7044 224 22.2005 222.555 21.1328C221.109 20.0521 219.202 19.5117 216.832 19.5117C213.811 19.5117 211.467 20.4557 209.801 22.3438C208.147 24.2188 207.32 26.875 207.32 30.3125C207.32 34.0234 208.258 36.9792 210.133 39.1797C212.021 41.3802 214.54 42.4805 217.691 42.4805C219.671 42.4805 221.357 42.0312 222.75 41.1328C224.156 40.2344 225.296 38.8672 226.168 37.0312L227.887 37.832C227.366 38.8607 226.91 39.8698 226.52 40.8594C226.129 41.8359 225.797 42.806 225.523 43.7695C223.948 44.4076 222.405 44.8893 220.895 45.2148C219.397 45.5534 217.952 45.7227 216.559 45.7227C212.027 45.7227 208.355 44.3815 205.543 41.6992C202.73 39.0169 201.324 35.5143 201.324 31.1914C201.324 26.9206 202.796 23.4049 205.738 20.6445C208.694 17.8711 212.438 16.4844 216.969 16.4844C218.596 16.4844 220.191 16.6146 221.754 16.875C223.329 17.1354 224.918 17.5391 226.52 18.0859ZM230.465 17.1289C230.842 17.1419 231.389 17.168 232.105 17.207C234.111 17.3112 235.471 17.3633 236.188 17.3633C237.086 17.3633 238.701 17.3047 241.031 17.1875C241.552 17.1615 241.949 17.1419 242.223 17.1289V18.8867H241.773C240.654 18.8867 239.892 19.1602 239.488 19.707C239.098 20.2539 238.902 21.7122 238.902 24.082V24.9609V29.2383C239.996 29.2773 241.077 29.3099 242.145 29.3359C243.212 29.349 244.267 29.3555 245.309 29.3555C246.285 29.3555 247.385 29.349 248.609 29.3359C249.833 29.3099 251.181 29.2773 252.652 29.2383V24.082C252.652 21.7122 252.457 20.2539 252.066 19.707C251.676 19.1602 250.914 18.8867 249.781 18.8867H249.332V17.1289C250.582 17.207 251.708 17.2656 252.711 17.3047C253.714 17.3438 254.605 17.3633 255.387 17.3633C256.103 17.3633 257.464 17.3112 259.469 17.207C260.172 17.168 260.719 17.1419 261.109 17.1289V18.8672C261.031 18.8672 260.94 18.8672 260.836 18.8672C260.745 18.8542 260.621 18.8477 260.465 18.8477C259.436 18.8477 258.74 19.1862 258.375 19.8633C258.01 20.5273 257.828 22.0117 257.828 24.3164C257.828 24.707 257.835 25.4102 257.848 26.4258C257.861 27.4414 257.867 28.2747 257.867 28.9258V33.0469C257.867 33.8281 257.861 34.8112 257.848 35.9961C257.835 37.168 257.828 37.9557 257.828 38.3594C257.828 40.4036 258.017 41.7383 258.395 42.3633C258.772 42.9753 259.488 43.2812 260.543 43.2812C260.738 43.2812 260.882 43.2812 260.973 43.2812C261.077 43.2682 261.168 43.2552 261.246 43.2422V45C260.803 44.974 260.178 44.9414 259.371 44.9023C257.353 44.8112 256.012 44.7656 255.348 44.7656C254.605 44.7656 253.714 44.7852 252.672 44.8242C251.63 44.8633 250.439 44.9219 249.098 45V43.2422C249.202 43.2422 249.332 43.2487 249.488 43.2617C249.645 43.2747 249.755 43.2812 249.82 43.2812C250.94 43.2812 251.689 42.9883 252.066 42.4023C252.457 41.8164 252.652 40.306 252.652 37.8711V36.4062V32.2461C251.337 32.2201 250.126 32.2005 249.02 32.1875C247.913 32.1745 246.819 32.168 245.738 32.168C243.889 32.168 242.49 32.1745 241.539 32.1875C240.602 32.2005 239.723 32.2201 238.902 32.2461V37.8711C238.902 40.306 239.091 41.8164 239.469 42.4023C239.859 42.9883 240.615 43.2812 241.734 43.2812C241.799 43.2812 241.91 43.2747 242.066 43.2617C242.236 43.2487 242.366 43.2422 242.457 43.2422V45C241.103 44.9219 239.905 44.8633 238.863 44.8242C237.822 44.7852 236.943 44.7656 236.227 44.7656C235.549 44.7656 234.208 44.8112 232.203 44.9023C231.396 44.9414 230.764 44.974 230.309 45V43.2422C230.4 43.2552 230.497 43.2682 230.602 43.2812C230.706 43.2812 230.862 43.2812 231.07 43.2812C232.112 43.2812 232.815 42.9427 233.18 42.2656C233.557 41.5755 233.746 40.0977 233.746 37.832C233.746 37.4414 233.74 36.7188 233.727 35.6641C233.714 34.6094 233.707 33.75 233.707 33.0859V28.9258C233.707 28.1966 233.714 27.2721 233.727 26.1523C233.74 25.0326 233.746 24.2773 233.746 23.8867C233.746 21.8034 233.557 20.4427 233.18 19.8047C232.802 19.1667 232.112 18.8477 231.109 18.8477C230.94 18.8477 230.81 18.8542 230.719 18.8672C230.628 18.8672 230.543 18.8672 230.465 18.8672V17.1289Z" fill="white"/>
<path d="M0.230469 51.4648H262.75V54.3359H0.230469V51.4648Z" fill="white"/>
<path d="M83.3281 41.875C82.5208 42.0573 81.7266 42.194 80.9453 42.2852C80.151 42.3633 79.3438 42.4023 78.5234 42.4023C75.151 42.4023 72.5534 41.4714 70.7305 39.6094C68.9076 37.7474 67.9961 35.0911 67.9961 31.6406C67.9961 27.8516 68.9727 24.9154 70.9258 22.832C72.8789 20.7357 75.6133 19.6875 79.1289 19.6875C79.6367 19.6875 80.2161 19.7135 80.8672 19.7656C81.5052 19.8047 82.2734 19.8828 83.1719 20C83.224 23.1771 83.263 26.1914 83.2891 29.043C83.3151 31.8815 83.3281 34.4661 83.3281 36.7969V41.875ZM92.1562 45V43.2422C92.0651 43.2552 91.9674 43.2682 91.8633 43.2812C91.7591 43.2812 91.6029 43.2812 91.3945 43.2812C90.3138 43.2812 89.5846 42.9232 89.207 42.207C88.8294 41.4779 88.6406 39.6224 88.6406 36.6406V35.2344V33.1641L88.6016 28.5156C88.6016 28.2943 88.5951 27.9753 88.582 27.5586C88.543 25.6445 88.5234 24.3229 88.5234 23.5938C88.5234 21.6536 88.7122 20.3776 89.0898 19.7656C89.4544 19.1536 90.1445 18.8477 91.1602 18.8477C91.3555 18.8477 91.5052 18.8542 91.6094 18.8672C91.7135 18.8672 91.8047 18.8672 91.8828 18.8672V17.1289C90.763 17.194 89.7865 17.2461 88.9531 17.2852C88.1198 17.3112 87.3646 17.3242 86.6875 17.3242C85.4766 17.3242 83.9271 17.2721 82.0391 17.168C80.138 17.0508 78.849 16.9922 78.1719 16.9922C73.1458 16.9922 69.207 18.2422 66.3555 20.7422C63.5039 23.2292 62.0781 26.6471 62.0781 30.9961C62.0781 35.2148 63.582 38.6263 66.5898 41.2305C69.5977 43.8216 73.5885 45.1172 78.5625 45.1172C78.9661 45.1172 80.1576 45.0651 82.1367 44.9609C84.1159 44.8568 85.8997 44.8047 87.4883 44.8047C87.8659 44.8047 89.1419 44.8568 91.3164 44.9609L92.1562 45Z" fill="white"/>
<path d="M93.5234 51.4648H60.4766V54.3359H93.5234V51.4648Z" fill="white"/>
</svg>
