<svg width="200" height="80" viewBox="0 0 200 80" fill="none" xmlns="http://www.w3.org/2000/svg">
<path fill-rule="evenodd" clip-rule="evenodd" d="M149.279 30.6039C149.279 30.3423 149.366 30.3423 149.714 30.3423C150.756 30.5167 150.669 31.3015 150.669 31.6503C150.495 32.6096 149.8 32.6968 149.279 32.6096C149.192 32.6096 149.106 32.6096 149.019 32.5224L149.279 30.6039ZM148.932 32.9584L149.453 33.0456C151.624 33.3072 151.972 32.2608 151.972 31.8247C152.059 31.1271 151.711 30.2551 150.061 30.0807L148.585 29.9062C148.237 29.9062 147.977 29.8191 147.195 29.6446L147.108 29.9935H147.282C147.977 30.1679 147.89 30.4295 147.89 30.8655L147.455 34.2664C147.369 34.7025 147.369 34.9641 146.674 34.9641H146.5L146.413 35.3129C146.587 35.3129 146.761 35.4001 147.021 35.4001C147.195 35.4001 147.455 35.4001 147.629 35.4873L148.324 35.5745C148.498 35.5745 148.758 35.6617 148.932 35.6617C149.106 35.6617 149.366 35.7489 149.54 35.7489L149.627 35.4001H149.453C148.585 35.2257 148.758 34.8769 148.845 34.528L148.932 32.9584ZM139.899 31.5631C139.726 33.5688 138.77 34.0048 137.902 33.9176C137.294 33.8304 136.252 33.3944 136.512 31.1271C136.773 28.947 137.902 28.7726 138.423 28.8598C139.031 28.947 140.16 29.383 139.899 31.5631ZM141.376 31.8247C141.55 30.2551 140.507 28.6854 138.597 28.511C136.86 28.3366 135.296 29.383 135.123 31.0399C134.949 32.784 136.252 34.092 137.902 34.2664C139.465 34.5281 141.202 33.656 141.376 31.8247ZM122.963 27.5517H123.137C123.832 27.6389 123.832 27.9005 123.745 28.4238L123.485 31.8247C123.485 32.348 123.398 32.5224 122.79 32.5224H122.616V32.8712C122.79 32.8712 122.963 32.8712 123.224 32.8712C123.398 32.8712 123.658 32.8712 123.832 32.8712L124.527 32.9584C124.7 32.9584 124.961 32.9584 125.135 33.0456C125.308 33.0456 125.482 33.0456 125.743 33.1328V32.784H125.569C124.874 32.6968 124.874 32.4352 124.961 31.9119L125.048 30.3423L127.567 30.5167L127.48 32.0863C127.48 32.6096 127.393 32.784 126.785 32.784H126.611V33.1328C126.785 33.1328 126.959 33.1328 127.219 33.1328C127.393 33.1328 127.653 33.1328 127.827 33.1328L128.522 33.22C128.696 33.22 128.956 33.22 129.13 33.3072C129.304 33.3072 129.477 33.3072 129.738 33.3944V33.0456H129.564C128.869 32.9584 128.869 32.6968 128.956 32.1736L129.217 28.7726C129.217 28.2494 129.304 28.075 129.912 28.075H130.085V27.7261C129.912 27.7261 129.738 27.7261 129.477 27.7261C129.304 27.7261 129.043 27.7261 128.869 27.7261L128.174 27.6389C128.001 27.6389 127.74 27.6389 127.567 27.5517C127.393 27.5517 127.219 27.5517 126.959 27.4645V27.8134H127.132C127.827 27.9006 127.827 28.1622 127.74 28.6854L127.653 30.1678L125.135 29.9935L125.222 28.511C125.222 27.9878 125.308 27.8134 125.916 27.8134H126.09V27.4645C125.916 27.4645 125.743 27.4645 125.482 27.4645C125.308 27.4645 125.048 27.4645 124.874 27.4645L124.179 27.3773C124.006 27.3773 123.745 27.3773 123.571 27.2901C123.398 27.2901 123.224 27.2901 122.963 27.2029V27.5517ZM117.058 28.511C117.058 27.7261 117.058 27.3773 117.058 26.9413H116.71L116.623 27.2901C116.276 26.9413 115.842 26.8541 115.407 26.8541C114.191 26.7669 113.583 27.5517 113.497 28.4238C113.41 29.4702 114.191 29.9062 114.973 30.2551C115.668 30.6039 116.102 30.8655 116.102 31.4759C116.102 31.9119 115.755 32.3479 115.147 32.3479C114.278 32.3479 113.844 31.3887 113.67 30.7783H113.323V31.6503L113.236 32.6096H113.583L113.757 32.1736C114.278 32.6968 114.799 32.784 115.147 32.784C116.363 32.8712 117.231 32.0863 117.231 31.0399C117.231 30.1678 116.71 29.7318 116.189 29.383C115.407 28.8598 114.452 28.6854 114.452 27.9877C114.452 27.6389 114.799 27.2901 115.32 27.2901C115.928 27.2901 116.45 27.8133 116.623 28.5982L117.058 28.511ZM104.29 29.383V27.2901C104.29 27.1157 104.377 27.0285 104.464 27.0285H104.551C105.159 27.0285 105.767 27.1157 105.767 28.2494C105.767 29.383 104.985 29.383 104.551 29.383H104.29ZM102.206 27.0285H102.38C103.074 27.1157 103.074 27.3773 103.074 27.8134V31.2143C103.074 31.7375 103.074 31.9119 102.38 31.9991H102.206V32.3479C102.38 32.3479 102.553 32.3479 102.814 32.3479C102.988 32.3479 103.248 32.3479 103.422 32.3479H104.117C104.29 32.3479 104.551 32.3479 104.725 32.3479C104.898 32.3479 105.072 32.3479 105.333 32.3479V31.9991H105.159C104.464 31.9119 104.464 31.6503 104.464 31.2143V29.819H104.551C104.725 29.819 104.898 29.819 105.854 31.2143L106.635 32.3479H107.417H108.286V31.9991C107.764 31.8247 107.591 31.5631 107.156 30.9527C106.635 30.1679 106.375 29.819 106.027 29.4702C106.896 29.383 107.33 28.7726 107.33 28.075C107.33 27.9005 107.33 27.7261 107.243 27.5517C106.896 26.7669 106.114 26.6797 105.072 26.6797H103.682C103.335 26.6797 103.161 26.6797 102.293 26.6797L102.206 27.0285ZM93.8682 27.6389C93.8682 27.2029 93.8682 27.2029 94.2156 27.2029H94.3893C94.9973 27.2029 95.8658 27.2029 96.0395 28.2494H96.3869C96.3001 27.8134 96.3001 27.5517 96.3001 26.7669L92.9129 26.8541C92.4786 26.8541 92.9129 26.8541 91.697 26.8541V27.2029H91.8706C92.5655 27.2901 92.5655 27.4645 92.5655 27.9877L92.6523 31.3887C92.6523 31.9119 92.6523 32.0864 91.9575 32.1736H91.7838V32.5224C92.9129 32.5224 92.5655 32.4352 92.9997 32.4352L96.7343 32.3479V31.8247C96.7343 31.3887 96.7343 30.9527 96.7343 30.6911H96.3869C96.3001 31.8247 95.3447 31.9991 94.9104 31.9991C94.2156 31.9991 93.8682 31.8247 93.8682 30.7783V29.6446H94.0419C94.563 29.6446 94.9973 29.9062 94.9973 30.6039H95.3447L95.2578 29.4702V28.3366H94.9104C94.9104 28.947 94.4762 29.2958 93.9551 29.2958H93.7814L93.8682 27.6389ZM83.1855 30.0807H83.5329C84.7488 29.9935 84.8357 30.9527 84.8357 31.2143C84.9225 32.2608 84.1409 32.3479 83.9672 32.3479C83.2724 32.3479 83.2724 31.8247 83.2724 31.6503L83.1855 30.0807ZM83.1855 29.7318L83.0987 27.9006C83.0987 27.7262 83.0987 27.6389 83.2724 27.6389H83.4461C84.0541 27.6389 84.4014 27.9878 84.4883 28.5982C84.5751 29.6446 83.7935 29.7318 83.4461 29.7318H83.1855ZM82.0565 31.8247C82.0565 32.348 82.1433 32.5224 81.4485 32.6096H81.2748V32.9584C81.6222 32.9584 82.2302 32.8712 82.6644 32.8712C83.7935 32.784 85.4436 32.9584 86.1385 32.0863C86.399 31.8247 86.4859 31.4759 86.4859 31.1271C86.399 30.0806 85.3568 29.7318 84.5751 29.7318C85.5305 29.5574 85.9648 28.947 85.9648 28.3366C85.9648 28.075 85.7911 27.8133 85.6174 27.5517C85.0963 27.1157 84.3146 27.1157 83.7066 27.1157C83.1855 27.1157 82.7513 27.2029 82.2302 27.2029C81.6222 27.2029 81.8828 27.2029 81.0142 27.2901V27.6389H81.188C81.8828 27.6389 81.8828 27.9005 81.8828 28.4238L82.0565 31.8247ZM72.0686 30.7783L71.8949 28.6854C71.8949 28.511 71.9817 28.4238 72.0686 28.4238H72.1554C72.7634 28.4238 73.3713 28.4238 73.4582 29.4702C73.545 30.6039 72.8502 30.6911 72.3291 30.7783H72.0686ZM69.7236 28.5982H69.8973C70.5921 28.5982 70.5921 28.8598 70.6789 29.2958L71.0263 32.6968C71.1132 33.22 71.1132 33.3944 70.4184 33.5688H70.2447V33.9176C70.4184 33.9176 70.5921 33.9176 70.8527 33.8304C71.0264 33.8304 71.2869 33.7432 71.4606 33.7432L72.1554 33.656C72.3291 33.656 72.5897 33.656 72.7634 33.656C72.9371 33.656 73.1108 33.656 73.3713 33.656V33.3072H73.1976C72.5028 33.3072 72.5028 33.0456 72.416 32.6096L72.3291 31.2143H72.416C72.5897 31.2143 72.7634 31.1271 73.8925 32.5224L74.761 33.5688L75.5426 33.4816L76.4111 33.3944V33.0456C75.89 32.9584 75.7163 32.6096 75.1952 32.0863C74.5873 31.3887 74.3267 31.0399 73.8925 30.6911C74.761 30.5167 75.1084 29.819 75.1084 29.1214C75.1084 28.947 75.0215 28.7726 74.9346 28.5982C74.5004 27.9006 73.7187 27.8133 72.6765 27.9877L71.1132 28.1622C70.7658 28.1622 70.5921 28.1622 69.7236 28.2494V28.5982ZM60.9516 32.784L61.4727 30.6911L62.4281 32.6096L60.9516 32.784ZM60.8647 33.22L62.6886 32.9584L62.8623 33.22C63.1229 33.656 63.2097 33.8304 63.2097 34.0048C63.2097 34.2665 62.9492 34.3537 62.7755 34.3537L62.6018 34.4409V34.7897C62.8623 34.7897 63.2097 34.7025 63.4703 34.6153C63.644 34.6153 63.8177 34.6153 63.9045 34.528C64.0782 34.528 64.252 34.4409 64.4257 34.4409C64.6862 34.4409 65.1205 34.3537 65.381 34.3537V34.0048C64.7731 34.092 64.5993 33.656 64.3388 33.22L61.9938 28.8598L61.5596 29.0342L60.3436 33.4816C60.1699 34.092 60.0831 34.6153 59.3883 34.7897V35.1385C59.562 35.1385 59.9094 35.0513 60.2568 34.9641L61.3859 34.8769V34.528H61.2122C60.9516 34.528 60.691 34.528 60.691 34.092C60.691 33.8304 60.7779 33.656 60.7779 33.3072L60.8647 33.22ZM51.0505 33.4816L51.398 33.3944C52.6139 33.22 52.7876 34.092 52.7876 34.4409C52.9613 35.4873 52.2665 35.6617 52.0059 35.6617C51.3111 35.7489 51.2243 35.2257 51.2243 35.0513L51.0505 33.4816ZM51.0505 33.1328L50.79 31.3015C50.79 31.1271 50.7032 31.0399 50.9637 31.0399H51.1374C51.7454 30.9527 52.1796 31.2143 52.2665 31.9119C52.4402 32.9584 51.6585 33.1328 51.398 33.1328H51.0505ZM50.0952 35.3129C50.182 35.7489 50.182 36.0105 49.5741 36.1849L49.4004 36.2721L49.4872 36.621C49.8346 36.5338 50.3557 36.4465 50.8768 36.3593C52.0059 36.1849 53.6561 36.0977 54.2641 35.2257C54.4378 34.9641 54.5246 34.6153 54.5246 34.2664C54.3509 33.22 53.3087 32.9584 52.527 33.0456C53.4824 32.784 53.8298 32.0863 53.7429 31.4759C53.6561 31.2143 53.4824 30.9527 53.3087 30.7783C52.7876 30.3423 52.0059 30.4295 51.398 30.5167C50.8769 30.6039 50.4426 30.6911 49.9215 30.7783C49.3135 30.8655 49.5741 30.7783 48.7056 30.9527L48.7924 31.3015H48.9661C49.6609 31.3015 49.6609 31.4759 49.7478 31.9991L50.0952 35.3129Z" fill="white"/>
<path fill-rule="evenodd" clip-rule="evenodd" d="M171.687 38.5401C166.041 34.4415 161.612 32.1742 160.135 31.4766C160.049 31.4766 160.049 31.4766 159.962 31.4766C159.962 31.5638 159.962 31.5638 159.962 31.651C161.612 33.4823 164.478 35.924 167.17 38.1913C168.821 38.3657 170.297 38.4529 171.687 38.5401ZM184.975 52.4927C184.975 52.4055 185.062 52.3183 185.062 52.3183V52.2311V52.1439C185.062 52.0567 185.062 51.9695 185.149 51.8823C185.236 51.5335 185.236 51.0975 185.062 50.5743C184.975 50.1382 184.714 49.615 184.367 49.179C184.02 48.743 183.585 48.307 183.064 47.9581C182.977 47.9581 182.891 47.8709 182.891 47.8709L182.804 47.7837H182.717C182.63 47.7837 182.63 47.6965 182.543 47.6965L182.456 47.6093L182.369 47.5221C182.283 47.5221 182.196 47.4349 182.109 47.4349C182.022 47.4349 181.935 47.3477 181.848 47.3477C181.675 47.2605 181.501 47.2605 181.327 47.2605C180.98 47.1733 180.632 47.1733 180.285 47.1733C180.111 47.1733 179.938 47.1733 179.764 47.2605H179.677C179.33 47.3477 178.982 47.1733 178.809 46.9117C177.679 44.8188 175.942 43.7723 175.942 43.7723L175.508 41.8539L175.074 42.1155H174.987C173.771 42.0283 172.642 41.9411 171.6 41.8539C173.511 43.3363 175.074 44.47 175.595 44.906C176.811 45.6908 177.506 46.8245 177.94 47.5221C178.114 47.7837 178.027 48.1325 177.853 48.3942C177.766 48.4814 177.766 48.5686 177.679 48.6558L177.593 48.743V48.8302L177.506 49.0918C177.506 49.0918 177.506 49.0918 177.506 49.179V49.2662L177.419 49.4406C177.419 49.5278 177.419 49.5278 177.332 49.615V49.7894C177.332 49.8766 177.245 49.9638 177.245 50.051C177.158 50.3998 177.245 50.8359 177.332 51.1847C177.332 51.3591 177.419 51.5335 177.506 51.7079C177.593 51.8823 177.679 52.0567 177.766 52.2311C177.94 52.5799 178.114 52.8416 178.374 53.1032C178.461 53.1904 178.635 53.3648 178.722 53.452C178.809 53.5392 178.809 53.5392 178.895 53.6264C178.982 53.7136 178.982 53.7136 179.069 53.8008C179.156 53.888 179.156 53.888 179.243 53.9752C179.33 54.0624 179.416 54.0624 179.416 54.1496H179.503L179.59 54.2368C179.677 54.2368 179.677 54.324 179.764 54.324C179.938 54.4112 180.024 54.4984 180.198 54.4984C180.372 54.5856 180.459 54.5856 180.632 54.6728C180.806 54.6728 180.893 54.76 181.067 54.76C181.24 54.76 181.327 54.8472 181.501 54.8472C182.022 54.9345 182.543 54.8472 183.064 54.6728C183.498 54.4984 183.933 54.324 184.193 54.0624C184.454 53.8008 184.628 53.6264 184.801 53.452C184.888 53.2776 184.975 53.1904 184.975 53.1904C184.975 53.1904 184.975 53.1032 185.062 53.016C184.888 52.6671 184.888 52.6671 184.975 52.4927C184.975 52.5799 184.975 52.5799 184.975 52.4927ZM167.692 37.5808C167.692 37.5808 161.091 32.6102 160.57 32.087C160.57 32.087 166.215 35.1392 170.123 37.9297L167.692 37.5808ZM189.318 39.9354C189.404 39.761 189.404 39.6738 189.404 39.6738L189.491 39.3249C189.491 39.1505 189.491 38.8017 189.491 38.4529C189.404 38.1041 189.318 37.6681 189.057 37.232C188.796 36.796 188.449 36.4472 188.015 36.0984C187.928 36.0112 187.754 35.924 187.667 35.8368C187.581 35.7496 187.407 35.6624 187.32 35.6624C187.146 35.5752 187.059 35.5752 186.886 35.488C186.712 35.4007 186.625 35.4008 186.451 35.3136C186.365 35.3136 186.278 35.3136 186.278 35.2264H186.191H186.104C186.017 35.2264 185.93 35.2264 185.843 35.2264C185.757 35.2264 185.67 35.2264 185.583 35.2264C185.496 35.2264 185.409 35.2264 185.322 35.2264C185.236 35.2264 185.149 35.2264 185.062 35.2264C184.888 35.2264 184.714 35.2264 184.541 35.2264C184.193 35.2264 183.846 35.3135 183.498 35.488C183.325 35.5752 183.151 35.6624 182.977 35.6624C182.804 35.7496 182.63 35.8368 182.543 35.924C182.283 36.0984 181.935 36.36 181.761 36.7088C181.675 36.796 181.675 36.8832 181.588 36.9704L181.501 37.0576C181.501 37.1448 181.501 37.1448 181.414 37.232L181.327 37.4064V37.4937C181.327 37.4937 181.327 37.4936 181.327 37.5808L181.24 37.8425V37.9297V38.1041C181.24 38.1913 181.24 38.2785 181.24 38.3657C181.24 38.7145 180.98 38.9761 180.719 39.0633C179.938 39.3249 178.374 39.5865 177.332 39.4121C175.248 39.0633 162.915 37.8425 157.183 38.2785C157.096 38.2785 157.096 38.3657 157.096 38.3657C157.096 38.4529 157.096 38.4529 157.183 38.4529C159.006 39.0633 165.607 40.9818 175.161 41.5922L176.898 40.3714C176.898 40.3714 178.809 40.7202 180.98 40.0226C181.414 39.9354 181.848 40.0226 182.022 40.4586C182.109 40.633 182.283 40.7202 182.369 40.8946C182.63 41.1562 182.891 41.3306 183.151 41.505C183.325 41.5922 183.412 41.6794 183.585 41.7666C183.672 41.7666 183.759 41.8539 183.846 41.8539C183.933 41.8539 184.02 41.941 184.106 41.941L184.193 42.0283H184.28C184.367 42.0283 184.454 42.0283 184.454 42.1155H184.541H184.628C184.714 42.1155 184.801 42.1155 184.888 42.2027C185.496 42.2899 186.104 42.2899 186.625 42.2027C187.146 42.1155 187.667 41.8538 188.015 41.5922C188.449 41.3306 188.71 40.9818 188.883 40.7202C188.97 40.633 188.97 40.5458 188.97 40.4586C188.97 40.4586 188.97 40.3714 189.057 40.3714C189.057 40.3714 189.057 40.2842 189.144 40.2842C189.144 40.197 189.144 40.2842 189.144 40.197C189.231 40.197 189.318 40.0226 189.318 39.9354ZM174.379 40.1098C174.466 40.197 174.553 40.3714 174.64 40.4586C175.248 40.3714 176.29 40.1098 176.724 39.8482L174.64 39.6738L174.379 40.1098ZM173.337 40.5458C173.337 40.4586 173.337 40.4586 173.337 40.3714C173.424 40.1098 173.684 39.9354 173.945 39.9354L174.119 39.5865L159.528 38.6273C166.041 40.197 171.86 40.4586 173.337 40.5458ZM188.102 39.6738C188.015 39.761 188.015 39.7609 188.015 39.8482C188.015 39.8482 188.015 39.8482 188.015 39.9354C188.015 39.9354 187.928 40.0226 187.928 40.1098C187.841 40.2842 187.667 40.4586 187.407 40.7202C187.146 40.8946 186.799 41.069 186.451 41.1562C186.017 41.2434 185.583 41.3306 185.062 41.2434C184.975 41.2434 184.975 41.2434 184.888 41.2434H184.801H184.714C184.628 41.2434 184.541 41.2434 184.541 41.1562H184.454H184.367C184.28 41.1562 184.28 41.1562 184.193 41.069C184.106 41.069 184.106 40.9818 184.02 40.9818C183.933 40.8946 183.759 40.8946 183.672 40.8074C183.412 40.633 183.238 40.5458 182.977 40.3714C182.891 40.2842 182.804 40.197 182.717 40.1098C182.63 40.0226 182.543 39.8481 182.456 39.7609C182.369 39.6737 182.283 39.4993 182.283 39.4121L182.196 39.2377C182.196 39.1505 182.196 39.0633 182.109 39.0633C182.109 38.9761 182.109 38.8889 182.109 38.8889V38.8017V38.7145C182.109 38.6273 182.109 38.5401 182.109 38.5401V38.4529V38.3657L182.196 38.1041C182.196 38.1041 182.196 38.1041 182.196 38.0169V37.9297V37.8425L182.283 37.7553C182.283 37.6681 182.369 37.668 182.369 37.5808C182.369 37.4936 182.456 37.4937 182.456 37.4064L182.63 37.232C182.717 37.1448 182.804 37.0576 182.977 36.9704C183.064 36.8832 183.238 36.796 183.325 36.796C183.412 36.7088 183.585 36.7088 183.672 36.6216C183.933 36.5344 184.193 36.5344 184.454 36.4472C184.628 36.4472 184.714 36.4472 184.888 36.4472C184.975 36.4472 185.062 36.4472 185.062 36.4472C185.149 36.4472 185.149 36.4472 185.236 36.4472C185.322 36.4472 185.322 36.4472 185.409 36.4472C185.496 36.4472 185.496 36.4472 185.583 36.4472H185.67H185.757C185.843 36.4472 185.93 36.4472 185.93 36.5344C186.017 36.6216 186.104 36.6216 186.278 36.7088C186.365 36.796 186.451 36.796 186.625 36.8832C186.712 36.9704 186.799 36.9704 186.886 37.0576C186.973 37.1448 187.059 37.1448 187.146 37.232C187.494 37.4936 187.667 37.8425 187.841 38.1041C188.015 38.3657 188.102 38.6273 188.102 38.8889C188.102 39.0633 188.102 39.2377 188.102 39.4121C188.102 39.4993 188.102 39.5865 188.102 39.5865C188.102 39.5865 188.102 39.6737 188.015 39.7609C188.188 39.5865 188.188 39.5866 188.102 39.6738ZM183.759 52.0567C183.672 52.1439 183.672 52.2311 183.672 52.2311C183.672 52.2311 183.672 52.3183 183.585 52.4055C183.498 52.4927 183.412 52.6672 183.238 52.7544C183.064 52.9288 182.804 53.016 182.543 53.1032C182.283 53.1904 181.848 53.2776 181.501 53.2776C181.414 53.2776 181.327 53.2776 181.154 53.2776C181.067 53.2776 180.98 53.2776 180.806 53.1904C180.719 53.1904 180.546 53.1032 180.459 53.1032C180.372 53.1032 180.285 53.016 180.111 53.016C180.024 53.016 180.024 52.9287 179.938 52.9287L179.851 52.8415H179.764C179.677 52.8415 179.677 52.7544 179.59 52.7544C179.503 52.7544 179.503 52.6671 179.416 52.6671C179.33 52.6671 179.33 52.5799 179.243 52.5799C179.156 52.5799 179.156 52.4927 179.069 52.4927C178.982 52.4055 178.895 52.3183 178.809 52.2311C178.635 52.0567 178.461 51.7951 178.287 51.6207C178.201 51.5335 178.201 51.3591 178.114 51.2719C178.027 51.1847 178.027 51.0103 178.027 50.8359C178.027 50.6615 177.94 50.5742 177.94 50.3998V50.2254C177.94 50.1382 177.94 50.051 177.94 50.051C177.94 49.9638 177.94 49.8766 177.94 49.8766V49.7894V49.7022V49.615C177.94 49.615 177.94 49.615 177.94 49.5278L178.027 49.3534L178.114 49.2662C178.114 49.179 178.201 49.179 178.201 49.0918C178.201 49.0918 178.201 49.0046 178.287 49.0046L178.374 48.9174C178.461 48.8302 178.461 48.8302 178.548 48.8302C178.635 48.8302 178.635 48.743 178.722 48.743L178.895 48.6558C178.982 48.5686 179.156 48.5685 179.243 48.4813C179.33 48.3941 179.503 48.3942 179.677 48.3942C179.851 48.3942 179.938 48.3942 180.111 48.3942C180.372 48.3942 180.632 48.3941 180.893 48.4813C180.98 48.4813 181.153 48.5686 181.24 48.5686C181.327 48.5686 181.327 48.5686 181.414 48.6558C181.501 48.6558 181.501 48.743 181.588 48.743H181.675L181.761 48.8302C181.848 48.8302 181.848 48.9174 181.935 48.9174L182.022 49.0046C182.109 49.0046 182.109 49.0918 182.196 49.0918C182.543 49.3534 182.891 49.7022 183.151 50.051C183.412 50.3998 183.498 50.7486 183.585 51.0975C183.672 51.4463 183.672 51.7079 183.585 51.8823C183.585 51.9695 183.585 51.9695 183.585 52.0567V52.1439C183.585 52.1439 183.585 52.1439 183.585 52.2311V52.3183C183.759 52.0567 183.759 52.0567 183.759 52.0567Z" fill="white"/>
<path fill-rule="evenodd" clip-rule="evenodd" d="M87.4409 56.3284C73.0236 45.6895 65.815 40.4573 65.815 40.4573C64.3385 42.3758 64.3385 44.3814 65.815 46.2999C83.2721 59.4677 92.0441 66.008 92.0441 66.008C78.061 54.9331 71.026 49.4393 71.026 49.4393C74.9343 52.0554 77.8004 53.3635 79.4506 53.3635C81.6219 53.4507 84.3143 54.4099 87.4409 56.3284ZM97.2551 68.973C97.5157 68.973 97.7762 69.2346 97.7762 69.4962C97.7762 69.7578 97.5157 70.0194 97.2551 70.0194C96.9946 70.0194 96.734 69.7578 96.734 69.4962C96.734 69.2346 96.9946 68.973 97.2551 68.973ZM97.2551 68.6242C97.7762 68.6242 98.2105 69.0602 98.2105 69.5834C98.2105 70.1066 97.7762 70.5427 97.2551 70.5427C96.734 70.5427 96.2998 70.1066 96.2998 69.5834C96.2998 68.973 96.734 68.6242 97.2551 68.6242ZM130.432 41.9397C122.355 49.9625 112.888 57.8981 101.858 65.572C116.449 57.026 125.916 49.1777 130.432 41.9397ZM131.475 43.6838C131.996 43.6838 132.43 44.1198 132.43 44.6431C132.43 45.1663 131.996 45.6023 131.475 45.6023C130.953 45.6023 130.519 45.1663 130.519 44.6431C130.519 44.1198 130.953 43.6838 131.475 43.6838ZM96.2129 67.6649C91.9572 64.6128 88.9174 62.4327 87.0935 61.0374C87.7015 59.4678 88.3963 58.0725 89.2648 56.9388C73.8053 45.4279 66.0755 39.6725 66.0755 39.6725C65.1202 39.8469 64.1648 40.6317 63.1226 41.8526C62.1672 43.335 61.9935 44.3814 62.6015 44.9919C83.7932 60.427 94.389 68.1882 94.5627 68.3626C93.26 69.3218 92.9126 69.9322 93.5205 70.3682C94.7364 71.8507 96.4735 72.1123 98.6448 71.1531C100.99 73.7692 102.206 75.9493 102.466 77.7806C103.074 80.3095 103.856 80.6583 104.637 78.9142C105.593 76.4725 104.116 73.682 100.121 70.5427C109.762 65.8336 120.01 59.2061 130.606 50.6601C134.254 47.8696 135.904 45.5151 135.557 43.771C135.383 41.7653 134.775 40.1085 133.646 38.9748C132.777 38.3644 131.822 38.8876 130.606 40.4573C119.836 51.7066 109.154 60.427 98.5579 66.5313C97.342 67.4033 96.5603 67.6649 96.2129 67.6649Z" fill="white"/>
<path fill-rule="evenodd" clip-rule="evenodd" d="M175.074 7.32513L175.682 7.49952C178.113 8.28436 177.94 9.15642 177.592 10.9005L175.074 23.2834C174.726 25.0275 174.553 25.8996 172.034 25.638L171.339 25.5508L171.079 26.6844C171.773 26.8588 172.468 26.946 173.163 27.1204C173.858 27.2076 174.639 27.382 175.334 27.5564L177.766 28.0797C178.461 28.2541 179.243 28.4285 179.937 28.6029C180.632 28.7773 181.327 28.9517 182.022 29.0389L182.282 27.9053L181.674 27.7309C179.243 26.946 179.416 26.074 179.764 24.3299L180.893 18.7489L189.925 20.6673L188.796 26.2484C188.449 27.9925 188.275 28.8645 185.756 28.6029L185.062 28.5157L184.801 29.6494C185.496 29.8238 186.191 29.911 186.885 30.0854C187.58 30.1726 188.362 30.347 189.057 30.5214L191.489 31.0446C192.183 31.219 192.965 31.3934 193.66 31.5678C194.355 31.7422 195.049 31.9166 195.744 32.0038L196.005 30.8702L195.397 30.6958C192.965 29.911 193.139 29.0389 193.486 27.2948L196.005 14.9119C196.352 13.1678 196.526 12.2958 199.045 12.5574L199.739 12.6446L200 11.5109C199.305 11.3365 198.61 11.2493 197.916 11.0749C197.221 10.9877 196.439 10.8133 195.744 10.6389L193.312 10.1156C192.618 9.94123 191.836 9.76685 191.141 9.59244C190.446 9.41803 189.752 9.24362 189.057 9.15642L188.796 10.2901L189.404 10.4645C191.836 11.2493 191.662 12.1213 191.315 13.8654L190.273 19.0977L181.24 17.1792L182.282 11.9469C182.63 10.2029 182.803 9.33083 185.322 9.59244L186.017 9.67962L186.278 8.54598C185.583 8.37157 184.888 8.28437 184.193 8.10996C183.498 8.02276 182.717 7.84835 182.022 7.67394L179.59 7.15071C178.895 6.9763 178.113 6.80189 177.419 6.62748C176.724 6.45307 176.029 6.27867 175.334 6.19146L175.074 7.32513ZM169.863 19.0977L168.56 18.9233C167.778 21.5394 165.607 24.5915 161.959 24.0683C159.527 23.7195 155.532 21.801 156.488 14.3014C157.356 7.84835 160.656 5.23222 163.957 5.75544C165.607 6.01705 167.17 6.8019 168.212 8.89479C168.647 9.76683 168.994 10.7261 169.081 11.8597L170.471 12.0341L171.079 5.40663L169.776 5.23224L169.081 6.97632C167.083 4.97063 165.086 4.44739 163.522 4.18578C157.356 3.31374 151.971 7.15073 151.19 13.5166C150.321 19.9697 154.229 24.7659 160.483 25.638C162.48 25.8996 164.912 25.8124 167.257 24.2427L167.604 26.1612L168.907 26.3356L169.342 22.673L169.863 19.0977ZM130.345 6.8019L130.519 6.10428C131.127 3.92418 132.69 2.61611 136.164 2.96493C137.207 3.05213 137.12 3.40095 137.033 4.27299L135.817 18.2256C135.643 19.9697 135.643 20.8418 133.038 20.929H132.343L132.256 22.1498C132.951 22.237 133.646 22.237 134.34 22.3242C135.035 22.3242 135.817 22.4114 136.599 22.4986L139.03 22.7602C139.725 22.8474 140.507 22.9346 141.289 23.0218C141.983 23.1091 142.678 23.1962 143.373 23.2834L143.46 22.0626L142.765 21.9754C140.246 21.4522 140.333 20.6673 140.507 18.836L141.723 4.8834C141.81 4.01136 141.723 3.66256 142.765 3.74976C146.239 4.09858 147.629 5.66826 147.802 7.84836L147.889 8.54598L149.105 8.63319C149.105 6.88911 149.192 5.75546 149.366 2.61612L142.504 2.09289L136.599 1.56966L129.737 0.87204C129.39 3.92418 129.216 5.05782 128.956 6.8019H130.345ZM102.9 1.13364L103.595 1.22085C106.114 1.56967 106.114 2.4417 106.027 4.18578L105.853 13.1678C105.766 15.9583 106.114 21.365 114.712 21.5394C116.796 21.6266 123.223 21.365 123.484 12.9062L123.658 6.5403C123.745 3.40096 124.092 1.65687 126.958 1.65687V0.43602C124.613 0.43602 123.918 0.43602 123.05 0.43602C122.181 0.43602 121.486 0.348805 119.141 0.261601V1.48245C122.008 1.56966 122.268 3.31375 122.181 6.5403L122.008 12.9062C121.921 14.8247 121.66 19.7081 115.667 19.6209C113.322 19.5337 110.543 18.8361 110.63 13.4294L110.804 4.44738C110.804 2.7033 110.804 1.74407 113.409 1.56966L114.104 1.48245V0.261601C113.409 0.261601 112.714 0.261601 112.02 0.261601C111.325 0.261601 110.543 0.261601 109.762 0.261601L107.33 0.174392C106.635 0.174392 105.853 0.0871827 105.072 0.0871827C104.377 -2.12913e-05 103.682 0 102.987 0L102.9 1.13364ZM86.138 2.4417C86.138 2.18009 86.138 1.83126 87.0065 1.83126H88.0487C94.302 1.65685 94.3889 9.2436 94.4757 10.9877C94.5626 14.127 94.4757 19.6209 89.2646 19.7953C86.6591 19.8825 86.5723 17.3536 86.4854 15.7839L86.138 2.4417ZM78.1477 1.74408L78.8425 1.83126C81.3612 2.00567 81.3612 2.87773 81.448 4.70901L81.7086 17.3536C81.7086 19.0977 81.7954 20.0569 79.2767 20.3185L78.5819 20.4057V21.6266C81.1006 21.5394 81.3612 21.4522 82.9245 21.4522C87.0934 21.2778 83.7061 21.5394 89.2646 21.365C96.4733 21.1906 100.034 17.092 99.8605 11.0749C99.7736 8.89479 99.2525 6.71469 98.1235 4.97061C95.5179 1.04643 91.4359 0.348816 87.1802 0.43602C85.8774 0.43602 84.5747 0.610412 83.2719 0.610412C82.056 0.610412 81.1006 0.610412 78.0608 0.610412L78.1477 1.74408ZM53.6556 4.97061C53.6556 4.709 53.6556 4.36019 54.4373 4.27299L55.4795 4.18578C61.7328 3.48815 62.4276 11.0749 62.6013 12.819C62.9487 15.9583 63.2092 21.4522 58.085 21.9754C55.4795 22.237 55.1321 19.7081 55.0452 18.2256L53.6556 4.97061ZM45.6653 4.8834H46.3601C48.8788 4.8834 48.9656 5.75544 49.1393 7.49952L50.4421 20.0569C50.6158 21.801 50.7027 22.673 48.2708 23.1962L47.576 23.3707L47.6629 24.5915C50.1816 24.3299 50.4421 24.2427 52.0054 24.0683C56.1743 23.5451 52.7871 24.0683 58.3456 23.4579C65.4674 22.673 68.6809 18.3128 68.0729 12.2957C67.8124 10.1156 67.1176 8.02276 65.8148 6.36588C62.8618 2.61611 58.7798 2.26728 54.5241 2.7033C53.2213 2.87771 51.9186 3.05212 50.6158 3.22653C49.3999 3.40094 48.4445 3.40094 45.4916 3.66255L45.6653 4.8834ZM44.0151 18.9233C43.8414 22.9346 41.757 23.8939 39.0646 24.3299C36.1117 24.7659 35.1563 24.3299 34.5483 20.3185L32.985 9.85404C32.7245 8.10996 32.5507 7.23793 35.0694 6.5403L35.7642 6.36588L35.5905 5.23224C34.8957 5.31944 34.2009 5.49385 33.5061 5.58105C32.8113 5.75546 32.0296 5.84266 31.3348 6.01707L28.903 6.36588C28.2082 6.45308 27.4265 6.54028 26.6449 6.62748C25.9501 6.71469 25.2552 6.80191 24.5604 6.88911L24.7341 8.02275H25.4289C27.9476 7.84834 28.1213 8.72038 28.3819 10.5517L30.2926 23.0218C30.5532 24.7659 30.7269 25.638 28.2082 26.3356L27.5134 26.51L27.6871 27.6437C31.8559 26.946 30.3795 27.1204 31.9428 26.8588L46.1864 24.6787C45.7521 22.0626 45.5784 20.1441 45.4916 18.6616L44.0151 18.9233ZM17.786 19.1849C19.3494 26.51 16.8307 29.1261 13.6172 29.8237C11.5327 30.347 7.36388 29.9982 5.54 21.801C3.80297 13.8654 7.62443 11.9469 9.62201 11.5109C11.7064 10.9877 16.049 11.0749 17.786 19.1849ZM23.1708 18.2256C21.9549 12.5574 16.657 8.37158 9.44831 10.0285C3.02131 11.5109 -1.0607 16.9176 0.242066 23.1962C1.63169 29.5621 7.79813 32.6143 13.704 31.3062C19.6968 29.911 24.6473 24.8531 23.1708 18.2256Z" fill="white"/>
<path fill-rule="evenodd" clip-rule="evenodd" d="M30.1196 38.5401C35.765 34.4415 40.1944 32.1742 41.6709 31.4766C41.7577 31.4766 41.7577 31.4766 41.8446 31.4766C41.8446 31.5638 41.8446 31.5638 41.8446 31.651C40.1944 33.4823 37.3283 35.924 34.6359 38.1913C32.9857 38.3657 31.5093 38.4529 30.1196 38.5401ZM16.8314 52.4927C16.8314 52.4055 16.7445 52.3183 16.7445 52.3183V52.2311V52.1439C16.7445 52.0567 16.7445 51.9695 16.6577 51.8823C16.5708 51.5335 16.5708 51.0975 16.7445 50.5743C16.8314 50.1382 17.0919 49.615 17.4393 49.179C17.7868 48.743 18.221 48.307 18.7421 47.9581C18.829 47.9581 18.9158 47.8709 18.9158 47.8709L19.0027 47.7837H19.0895C19.1764 47.7837 19.1764 47.6965 19.2632 47.6965L19.3501 47.6093L19.4369 47.5221C19.5238 47.5221 19.6106 47.4349 19.6975 47.4349C19.7843 47.4349 19.8712 47.3477 19.958 47.3477C20.1317 47.2605 20.3054 47.2605 20.4791 47.2605C20.8265 47.1733 21.1739 47.1733 21.5214 47.1733C21.6951 47.1733 21.8688 47.1733 22.0425 47.2605H22.1293C22.4767 47.3477 22.8241 47.1733 22.9978 46.9117C24.1269 44.8188 25.8639 43.7723 25.8639 43.7723L26.2982 41.8539L26.7324 42.1155H26.8193C28.0352 42.0283 29.1643 41.9411 30.2065 41.8539C28.2958 43.3363 26.7324 44.47 26.2113 44.906C24.9954 45.6908 24.3006 46.8245 23.8663 47.5221C23.6926 47.7837 23.7795 48.1325 23.9532 48.3942C24.04 48.4814 24.04 48.5686 24.1269 48.6558L24.2137 48.743V48.8302L24.3006 49.0918C24.3006 49.0918 24.3006 49.0918 24.3006 49.179V49.2662L24.3874 49.4406C24.3874 49.5278 24.3875 49.5278 24.4743 49.615V49.7894C24.4743 49.8766 24.5611 49.9638 24.5611 50.051C24.648 50.3998 24.5612 50.8359 24.4743 51.1847C24.4743 51.3591 24.3875 51.5335 24.3006 51.7079C24.2138 51.8823 24.1269 52.0567 24.04 52.2311C23.8663 52.5799 23.6926 52.8416 23.4321 53.1032C23.3452 53.1904 23.1715 53.3648 23.0847 53.452C22.9978 53.5392 22.9978 53.5392 22.911 53.6264C22.8241 53.7136 22.8241 53.7136 22.7373 53.8008C22.6504 53.888 22.6504 53.888 22.5636 53.9752C22.4767 54.0624 22.3899 54.0624 22.3899 54.1496H22.303L22.2162 54.2368C22.1293 54.2368 22.1293 54.324 22.0425 54.324C21.8688 54.4112 21.7819 54.4984 21.6082 54.4984C21.4345 54.5856 21.3477 54.5856 21.174 54.6728C21.0003 54.6728 20.9134 54.76 20.7397 54.76C20.566 54.76 20.4791 54.8472 20.3054 54.8472C19.7843 54.9345 19.2632 54.8472 18.7421 54.6728C18.3079 54.4984 17.8736 54.324 17.613 54.0624C17.3525 53.8008 17.1788 53.6264 17.0051 53.452C16.9182 53.2776 16.8314 53.1904 16.8314 53.1904C16.8314 53.1904 16.8314 53.1032 16.7445 53.016C16.8314 52.6671 16.8314 52.6671 16.8314 52.4927C16.8314 52.5799 16.8314 52.5799 16.8314 52.4927ZM34.1148 37.5808C34.1148 37.5808 40.7155 32.6102 41.2366 32.087C41.2366 32.087 35.5913 35.1392 31.683 37.9297L34.1148 37.5808ZM12.402 39.9354C12.3151 39.761 12.3151 39.6738 12.3151 39.6738L12.2283 39.3249C12.2283 39.1505 12.2283 38.8017 12.2283 38.4529C12.3151 38.1041 12.402 37.6681 12.6625 37.232C12.9231 36.796 13.2705 36.4472 13.7047 36.0984C13.7916 36.0112 13.9653 35.924 14.0522 35.8368C14.139 35.7496 14.3127 35.6624 14.3996 35.6624C14.5733 35.5752 14.6601 35.5752 14.8338 35.488C15.0075 35.4007 15.0944 35.4008 15.2681 35.3136C15.3549 35.3136 15.4418 35.3136 15.4418 35.2264H15.5286H15.6155C15.7023 35.2264 15.7892 35.2264 15.876 35.2264C15.9629 35.2264 16.0497 35.2264 16.1366 35.2264C16.2234 35.2264 16.3103 35.2264 16.3971 35.2264C16.484 35.2264 16.5708 35.2264 16.6577 35.2264C16.8314 35.2264 17.0051 35.2264 17.1788 35.2264C17.5262 35.2264 17.8736 35.3135 18.221 35.488C18.3947 35.5752 18.5684 35.6624 18.7421 35.6624C18.9158 35.7496 19.0895 35.8368 19.1764 35.924C19.4369 36.0984 19.7843 36.36 19.958 36.7088C20.0449 36.796 20.0449 36.8832 20.1317 36.9704L20.2186 37.0576C20.2186 37.1448 20.2186 37.1448 20.3054 37.232L20.3923 37.4064V37.4937C20.3923 37.4937 20.3923 37.4936 20.3923 37.5808L20.4791 37.8425V37.9297V38.1041C20.4791 38.1913 20.4791 38.2785 20.4791 38.3657C20.4791 38.7145 20.7397 38.9761 21.0003 39.0633C21.7819 39.3249 23.3452 39.5865 24.3874 39.4121C26.4719 39.0633 38.8048 37.8425 44.5369 38.2785C44.6238 38.2785 44.6238 38.3657 44.6238 38.3657C44.6238 38.4529 44.6238 38.4529 44.5369 38.4529C42.7131 39.0633 36.1124 40.9818 26.5587 41.5922L24.8217 40.3714C24.8217 40.3714 22.911 40.7202 20.7397 40.0226C20.3054 39.9354 19.8712 40.0226 19.6975 40.4586C19.6106 40.633 19.4369 40.7202 19.3501 40.8946C19.0895 41.1562 18.829 41.3306 18.5684 41.505C18.3947 41.5922 18.3079 41.6794 18.1342 41.7666C18.0473 41.7666 17.9605 41.8539 17.8736 41.8539C17.7868 41.8539 17.6999 41.941 17.613 41.941L17.5262 42.0283H17.4393C17.3525 42.0283 17.2656 42.0283 17.2656 42.1155H17.1788H17.0919C17.0051 42.1155 16.9182 42.1155 16.8314 42.2027C16.2234 42.2899 15.6155 42.2899 15.0944 42.2027C14.5733 42.1155 14.0521 41.8538 13.7047 41.5922C13.2705 41.3306 13.0099 40.9818 12.8362 40.7202C12.7494 40.633 12.7494 40.5458 12.7494 40.4586C12.7494 40.4586 12.7494 40.3714 12.6625 40.3714C12.6625 40.3714 12.6625 40.2842 12.5757 40.2842C12.5757 40.197 12.5757 40.2842 12.5757 40.197C12.4888 40.197 12.4888 40.0226 12.402 39.9354ZM27.4272 40.1098C27.3404 40.197 27.2535 40.3714 27.1667 40.4586C26.5587 40.3714 25.5165 40.1098 25.0823 39.8482L27.1667 39.6738L27.4272 40.1098ZM28.4695 40.5458C28.4695 40.4586 28.4695 40.4586 28.4695 40.3714C28.3826 40.1098 28.1221 39.9354 27.8615 39.9354L27.6878 39.5865L42.2788 38.6273C35.765 40.197 29.9459 40.4586 28.4695 40.5458ZM13.7047 39.6738C13.7916 39.761 13.7916 39.7609 13.7916 39.8482C13.7916 39.8482 13.7916 39.8482 13.7916 39.9354C13.7916 39.9354 13.8785 40.0226 13.8785 40.1098C13.9653 40.2842 14.139 40.4586 14.3996 40.7202C14.6601 40.8946 15.0075 41.069 15.3549 41.1562C15.7892 41.2434 16.2234 41.3306 16.7445 41.2434C16.8314 41.2434 16.8314 41.2434 16.9182 41.2434H17.0051H17.0919C17.1788 41.2434 17.2656 41.2434 17.2656 41.1562H17.3525H17.4393C17.5262 41.1562 17.5262 41.1562 17.613 41.069C17.6999 41.069 17.6999 40.9818 17.7868 40.9818C17.8736 40.8946 18.0473 40.8946 18.1342 40.8074C18.3947 40.633 18.5684 40.5458 18.829 40.3714C18.9158 40.2842 19.0027 40.197 19.0895 40.1098C19.1764 40.0226 19.2632 39.8481 19.3501 39.7609C19.4369 39.6737 19.5238 39.4993 19.5238 39.4121L19.6106 39.2377C19.6106 39.1505 19.6106 39.0633 19.6975 39.0633C19.6975 38.9761 19.6975 38.8889 19.6975 38.8889V38.8017V38.7145C19.6975 38.6273 19.6975 38.5401 19.6975 38.5401V38.4529V38.3657L19.6106 38.1041C19.6106 38.1041 19.6106 38.1041 19.6106 38.0169V37.9297V37.8425L19.5238 37.7553C19.5238 37.6681 19.4369 37.668 19.4369 37.5808C19.4369 37.4936 19.3501 37.4937 19.3501 37.4064L19.1764 37.232C19.0895 37.1448 19.0027 37.0576 18.829 36.9704C18.7421 36.8832 18.5684 36.796 18.4816 36.796C18.3947 36.7088 18.221 36.7088 18.1342 36.6216C17.8736 36.5344 17.6131 36.5344 17.3525 36.4472C17.1788 36.4472 17.092 36.4472 16.9182 36.4472C16.8314 36.4472 16.7445 36.4472 16.7445 36.4472C16.6577 36.4472 16.6577 36.4472 16.5708 36.4472C16.484 36.4472 16.484 36.4472 16.3971 36.4472C16.3103 36.4472 16.3103 36.4472 16.2234 36.4472H16.1366H16.0497C15.9629 36.4472 15.876 36.4472 15.876 36.5344C15.7892 36.6216 15.7023 36.6216 15.5286 36.7088C15.4418 36.796 15.3549 36.796 15.1812 36.8832C15.0944 36.9704 15.0075 36.9704 14.9207 37.0576C14.8338 37.1448 14.747 37.1448 14.6601 37.232C14.3127 37.4936 14.139 37.8425 13.9653 38.1041C13.7916 38.3657 13.7047 38.6273 13.7047 38.8889C13.7047 39.0633 13.7047 39.2377 13.7047 39.4121C13.7047 39.4993 13.7047 39.5865 13.7047 39.5865C13.7047 39.5865 13.7047 39.6737 13.7916 39.7609C13.6179 39.5865 13.6179 39.5866 13.7047 39.6738C13.6179 39.6738 13.6179 39.5866 13.7047 39.6738ZM18.0473 52.0567C18.1342 52.1439 18.1342 52.2311 18.1342 52.2311C18.1342 52.2311 18.1342 52.3183 18.221 52.4055C18.3079 52.4927 18.3947 52.6672 18.5684 52.7544C18.7421 52.9288 19.0027 53.016 19.2632 53.1032C19.5238 53.1904 19.958 53.2776 20.3054 53.2776C20.3923 53.2776 20.4791 53.2776 20.6528 53.2776C20.7397 53.2776 20.8266 53.2776 21.0003 53.1904C21.0871 53.1904 21.2608 53.1032 21.3477 53.1032C21.4345 53.1032 21.5214 53.016 21.6951 53.016C21.7819 53.016 21.7819 52.9287 21.8688 52.9287L21.9556 52.8415H22.0425C22.1293 52.8415 22.1293 52.7544 22.2162 52.7544C22.303 52.7544 22.303 52.6671 22.3899 52.6671C22.4767 52.6671 22.4767 52.5799 22.5636 52.5799C22.6504 52.5799 22.6504 52.4927 22.7373 52.4927C22.8241 52.4055 22.911 52.3183 22.9978 52.2311C23.1715 52.0567 23.3452 51.7951 23.5189 51.6207C23.6058 51.5335 23.6058 51.3591 23.6926 51.2719C23.7795 51.1847 23.7795 51.0103 23.7795 50.8359C23.7795 50.6615 23.8663 50.5742 23.8663 50.3998V50.2254C23.8663 50.1382 23.8663 50.051 23.8663 50.051C23.8663 49.9638 23.8663 49.8766 23.8663 49.8766V49.7894V49.7022V49.615C23.8663 49.615 23.8663 49.615 23.8663 49.5278L23.7795 49.3534L23.6926 49.2662C23.6926 49.179 23.6058 49.179 23.6058 49.0918C23.6058 49.0918 23.6058 49.0046 23.5189 49.0046L23.4321 48.9174C23.3452 48.8302 23.3452 48.8302 23.2584 48.8302C23.1715 48.8302 23.1715 48.743 23.0847 48.743L22.911 48.6558C22.8241 48.5686 22.6504 48.5685 22.5636 48.4813C22.4767 48.3941 22.303 48.3942 22.1293 48.3942C21.9556 48.3942 21.8688 48.3942 21.6951 48.3942C21.4345 48.3942 21.174 48.3941 20.9134 48.4813C20.8265 48.4813 20.6529 48.5686 20.566 48.5686C20.4791 48.5686 20.4791 48.5686 20.3923 48.6558C20.3054 48.6558 20.3054 48.743 20.2186 48.743H20.1317L20.0449 48.8302C19.958 48.8302 19.958 48.9174 19.8712 48.9174L19.7843 49.0046C19.6975 49.0046 19.6975 49.0918 19.6106 49.0918C19.2632 49.3534 18.9158 49.7022 18.6553 50.051C18.3947 50.3998 18.3079 50.7486 18.221 51.0975C18.1342 51.4463 18.1342 51.7079 18.221 51.8823C18.221 51.9695 18.221 51.9695 18.221 52.0567V52.1439C18.221 52.1439 18.221 52.1439 18.221 52.2311V52.3183C17.9605 52.0567 17.9605 52.0567 18.0473 52.0567Z" fill="white"/>
</svg>
