<svg width="69" height="69" viewBox="0 0 69 69" fill="none" xmlns="http://www.w3.org/2000/svg">
<path d="M21.4015 37.1047L22.7096 38.4071C22.7096 38.4071 25.8232 41.5006 34.3189 33.0538C42.8145 24.6071 39.7009 21.5136 39.7009 21.5136L38.8786 20.6913C36.846 18.6731 36.6534 15.4301 38.4272 13.0611L42.0497 8.22244C44.2462 5.28994 48.4869 4.90182 51.0025 7.40307L55.5162 11.8881C56.7611 13.1301 57.5949 14.7343 57.4942 16.5168C57.2355 21.0794 55.1712 30.8918 43.6597 42.3401C31.4496 54.4783 19.9927 54.9613 15.3094 54.5243C13.8259 54.3863 12.5379 53.6331 11.5 52.5981L7.41748 48.5386C4.65748 45.7987 5.43373 41.0981 8.96423 39.1804L14.4555 36.1933C16.7727 34.9341 19.5902 35.3049 21.4015 37.1047Z" fill="white"/>
</svg>
